<?xml version="1.0" encoding="UTF-8"?>
<svg xmlns="http://www.w3.org/2000/svg" viewBox="0 0 1113.18 812.96">
  <defs>
    <style>
      .cls-1 {
        stroke: #204800;
        stroke-width: 2.32px;
      }

      .cls-1, .cls-2, .cls-3, .cls-4, .cls-5, .cls-6, .cls-7, .cls-8, .cls-9, .cls-10, .cls-11, .cls-12 {
        fill: none;
        stroke-miterlimit: 10;
      }

      .cls-13 {
        fill: #19442b;
      }

      .cls-13, .cls-14, .cls-15, .cls-16, .cls-17, .cls-18, .cls-19, .cls-20, .cls-21, .cls-22, .cls-23, .cls-24, .cls-25, .cls-26, .cls-27, .cls-28, .cls-29, .cls-30, .cls-31, .cls-32, .cls-33, .cls-34, .cls-35, .cls-36, .cls-37, .cls-38, .cls-39, .cls-40, .cls-41, .cls-42, .cls-43, .cls-44, .cls-45 {
        stroke-width: 0px;
      }

      .cls-14 {
        fill: #380403;
        opacity: .52;
      }

      .cls-15 {
        fill: #68211a;
      }

      .cls-2 {
        stroke: #7dbb77;
      }

      .cls-2, .cls-4, .cls-11 {
        stroke-width: 2.3px;
      }

      .cls-16 {
        fill: #cc7a56;
      }

      .cls-17 {
        opacity: .23;
      }

      .cls-17, .cls-24, .cls-30 {
        fill: #fff;
      }

      .cls-17, .cls-30 {
        mix-blend-mode: overlay;
      }

      .cls-18 {
        fill: #9e3b25;
      }

      .cls-19 {
        fill: #af0808;
        opacity: .32;
      }

      .cls-3 {
        stroke: #843836;
        stroke-width: 1.68px;
      }

      .cls-20 {
        fill: #78a4da;
      }

      .cls-4 {
        stroke: #6ba6bf;
      }

      .cls-46 {
        isolation: isolate;
      }

      .cls-5 {
        stroke: #651d13;
        stroke-linecap: round;
        stroke-width: 3px;
      }

      .cls-6 {
        stroke-width: 1.77px;
      }

      .cls-6, .cls-8 {
        stroke: #245b3c;
      }

      .cls-7 {
        stroke: #e5dfdf;
      }

      .cls-21 {
        fill: #6ba6bf;
        opacity: .33;
      }

      .cls-22 {
        fill: #5e1c19;
      }

      .cls-23 {
        opacity: .28;
      }

      .cls-23, .cls-11, .cls-37, .cls-38, .cls-39, .cls-44 {
        mix-blend-mode: multiply;
      }

      .cls-23, .cls-38 {
        fill: #6b1d19;
      }

      .cls-8 {
        stroke-width: 2.2px;
      }

      .cls-9 {
        stroke: #933d2a;
        stroke-width: .74px;
      }

      .cls-25 {
        fill: #600e00;
      }

      .cls-26 {
        fill: #569171;
      }

      .cls-27 {
        fill: #a55b41;
      }

      .cls-28, .cls-31 {
        fill: #19657c;
      }

      .cls-10 {
        stroke: #569171;
        stroke-width: 1.91px;
      }

      .cls-29 {
        fill: #3b9766;
      }

      .cls-30, .cls-39 {
        opacity: .45;
      }

      .cls-11 {
        stroke: #6b1d19;
      }

      .cls-11, .cls-38 {
        opacity: .37;
      }

      .cls-31 {
        opacity: .18;
      }

      .cls-32 {
        fill: #e1e0e0;
      }

      .cls-33 {
        fill: #872a21;
      }

      .cls-34 {
        fill: #245b3c;
      }

      .cls-12 {
        stroke: #316007;
        stroke-width: 1.79px;
      }

      .cls-35 {
        fill: #933d2a;
      }

      .cls-36 {
        fill: #e5dfdf;
      }

      .cls-37 {
        opacity: .38;
      }

      .cls-37, .cls-44 {
        fill: #204800;
      }

      .cls-39 {
        fill: #114956;
      }

      .cls-40 {
        fill: #e5b14a;
      }

      .cls-41 {
        fill: #d66749;
      }

      .cls-42 {
        fill: #336d4c;
      }

      .cls-43 {
        fill: #7dbb77;
      }

      .cls-44 {
        opacity: .65;
      }

      .cls-45 {
        fill: #e28e64;
      }
    </style>
  </defs>
  <g class="cls-46">
    <g id="Layer_2" data-name="Layer 2">
      <g id="OBJECTS">
        <g>
          <path class="cls-24" d="m152.77,92.34h269.36s-1.02-12.73-22.4-11.71c-1.02-20.88-30.55-33.61-49.9-16.8,14.26-35.13,5.6-61.1-18.84-63.65-24.44-2.55-40.73,22.91-45.32,38.7-14.77-15.78-17.82-2.55-18.33,0-22.4-24.44-52.45-16.29-61.61-6.62-9.17,9.67-7.13,32.59-7.13,32.59,0,0-32.08-13.75-39.21,1.02-7.13,14.77,5.6,19.86,5.6,19.86,0,0-10.69-2.04-12.22,6.62Z"/>
          <path class="cls-24" d="m843.35,239.11h200.11s-.76-9.46-16.64-8.7c-.76-15.51-22.7-24.97-37.07-12.48,10.59-26.1,4.16-45.39-14-47.29-18.16-1.89-30.26,17.02-33.67,28.75-10.97-11.73-13.24-1.89-13.62,0-16.64-18.16-38.96-12.11-45.77-4.92-6.81,7.19-5.3,24.21-5.3,24.21,0,0-23.83-10.21-29.13.76-5.3,10.97,4.16,14.75,4.16,14.75,0,0-7.94-1.51-9.08,4.92Z"/>
          <g>
            <g>
              <g>
                <path class="cls-42" d="m610.64,580.24l.67-135.27s-64.19,83.25-.67,135.27Z"/>
                <path class="cls-42" d="m610.64,580.24l.67-135.27s63.36,83.88-.67,135.27Z"/>
                <line class="cls-6" x1="611.32" y1="444.97" x2="610.64" y2="580.24"/>
                <line class="cls-6" x1="611.03" y1="501.68" x2="589.23" y2="486.73"/>
                <line class="cls-6" x1="610.87" y1="535.4" x2="639.32" y2="513.74"/>
              </g>
              <g>
                <g>
                  <path class="cls-29" d="m615.09,599.65l-99.02-92.16s17.71,103.62,99.02,92.16Z"/>
                  <path class="cls-34" d="m615.09,599.65l-99.02-92.16s104.62,10.25,99.02,92.16Z"/>
                  <line class="cls-6" x1="516.07" y1="507.49" x2="615.09" y2="599.65"/>
                  <line class="cls-6" x1="557.58" y1="546.13" x2="531.81" y2="552.03"/>
                  <line class="cls-6" x1="582.27" y1="569.1" x2="585.62" y2="533.5"/>
                </g>
                <g>
                  <path class="cls-26" d="m620.65,600.28l-54.96-123.6s-24.32,102.27,54.96,123.6Z"/>
                  <path class="cls-26" d="m620.65,600.28l-54.96-123.6s92.23,50.44,54.96,123.6Z"/>
                  <line class="cls-6" x1="565.69" y1="476.68" x2="620.65" y2="600.28"/>
                  <line class="cls-6" x1="588.73" y1="528.5" x2="562.71" y2="523.82"/>
                  <line class="cls-6" x1="602.43" y1="559.31" x2="619.47" y2="527.88"/>
                </g>
              </g>
              <g>
                <g>
                  <path class="cls-29" d="m609.16,599.65l99.02-92.16s-17.71,103.62-99.02,92.16Z"/>
                  <path class="cls-34" d="m609.16,599.65l99.02-92.16s-104.62,10.25-99.02,92.16Z"/>
                  <line class="cls-6" x1="708.18" y1="507.49" x2="609.16" y2="599.65"/>
                  <line class="cls-6" x1="666.66" y1="546.13" x2="692.44" y2="552.03"/>
                  <line class="cls-6" x1="641.98" y1="569.1" x2="638.63" y2="533.5"/>
                </g>
                <g>
                  <path class="cls-43" d="m603.6,600.28l54.96-123.6s24.32,102.27-54.96,123.6Z"/>
                  <path class="cls-43" d="m603.6,600.28l54.96-123.6s-92.23,50.44-54.96,123.6Z"/>
                  <line class="cls-6" x1="658.56" y1="476.68" x2="603.6" y2="600.28"/>
                  <line class="cls-6" x1="635.52" y1="528.5" x2="661.54" y2="523.82"/>
                  <line class="cls-6" x1="621.82" y1="559.31" x2="604.77" y2="527.88"/>
                </g>
              </g>
            </g>
            <g>
              <path class="cls-2" d="m392.39,471.84s124.14-100.65,68.22-307.39c-21.8-90.71-2.08-81.69-2.08-81.69"/>
              <path class="cls-43" d="m450.24,101.35s47.02-24.57,31.85-85.24c-47.78,9.1-53.84,56.73-31.85,85.24Z"/>
              <path class="cls-12" d="m482.09,16.11s-34.08,31.7-31.85,85.24"/>
              <path class="cls-43" d="m460.61,164.46s-20.28-56.87-79.43-21.46c30.33,21.75,39.04,36.34,79.43,21.46Z"/>
              <path class="cls-12" d="m460.61,164.46s-24.83-28.81-66.54-21.46"/>
              <path class="cls-43" d="m470.05,324.78s14.27-36.43,64.32-17.47c-12.13,38.68-40.67,30.38-64.32,17.47Z"/>
              <path class="cls-43" d="m443.63,403.49s23.24-66.35-54.11-74.44c1.52,26.79-.19,53.34,31.37,65.47,18.68,7.58,22.74,8.97,22.74,8.97Z"/>
              <path class="cls-12" d="m470.05,324.78s21.09-15.19,50.67-12.92"/>
              <path class="cls-12" d="m443.63,403.49s-8.61-49.02-41.22-61.6"/>
            </g>
            <g>
              <g>
                <path class="cls-43" d="m1005.38,357.97s23.67-44.39.6-54.27c-23.06-9.88-28.27,29.13-.6,54.27Z"/>
                <path class="cls-43" d="m928.3,434.26s44.51-23.76,30.95-44.78c-13.56-21.02-39.75,8.52-30.95,44.78Z"/>
                <path class="cls-43" d="m1031.13,389.53s44.51-23.76,30.95-44.78c-13.56-21.02-39.75,8.52-30.95,44.78Z"/>
                <path class="cls-43" d="m915.87,492.26s41.9,27.85,54.2,6.01c12.3-21.84-26.15-30.88-54.2-6.01Z"/>
                <path class="cls-5" d="m838.38,539.91s5.89-57.24,87.61-76.91c81.72-19.67,79.33-103.11,77.78-120.97"/>
                <path class="cls-5" d="m992,413.44s33.6-13.61,47.03-40.1"/>
                <path class="cls-5" d="m925.99,463s-5.87-29.13,13.42-50.78"/>
                <path class="cls-5" d="m877.45,483.57s27.05,16.4,66.28,5.37"/>
              </g>
              <g>
                <g>
                  <path class="cls-42" d="m762.93,681.27s116.17-263.16,217.68-187.87c36.14,30.04-206.95,204.3-206.95,204.3l-10.73-16.43Z"/>
                  <path class="cls-1" d="m942.3,503.96s-129.95,105.41-164.52,155.56"/>
                  <path class="cls-1" d="m849.74,583.93s9.41-15.68,9.04-46.72"/>
                  <path class="cls-44" d="m805.77,674.01l95.13-181.32c-74.27,44.33-137.97,188.58-137.97,188.58l9.45,14.47,10.47-4.71c5.59-4.1,13.47-9.91,22.92-17.02Z"/>
                  <path class="cls-26" d="m738.38,697.35s12.18-423.77,186.59-382.95c63.83,18.89-163.61,398.68-163.61,398.68l-22.98-15.73Z"/>
                  <path class="cls-12" d="m885.66,340.76s-110.34,210.39-130.9,341.87"/>
                  <path class="cls-12" d="m915.72,378.52s-44.9,15.83-62.8,28.79"/>
                  <path class="cls-12" d="m800.44,418.43s13.61,41.85,15.34,72.37"/>
                  <path class="cls-12" d="m834.92,542.29s-28.66,5.06-46.7,19.17"/>
                </g>
                <path class="cls-1" d="m889.68,548.32s28.86-9.47,60.78-5.85"/>
              </g>
            </g>
            <g>
              <g>
                <path class="cls-43" d="m284.1,419.04s-30.79-39.78-9.72-53.4c21.07-13.61,32.76,23.96,9.72,53.4Z"/>
                <path class="cls-43" d="m372.91,481.28s-47.87-15.94-38.04-38.94c9.83-23,40.62,1.71,38.04,38.94Z"/>
                <path class="cls-43" d="m264.02,454.48s-47.87-15.94-38.04-38.94c9.83-23,40.62,1.71,38.04,38.94Z"/>
                <path class="cls-43" d="m394.91,536.37s-36.62,34.5-52.42,15.04c-15.8-19.46,20.59-34.84,52.42-15.04Z"/>
                <path class="cls-5" d="m479.31,570.31s-15.43-55.44-99.3-61.09c-83.86-5.65-95.54-88.31-97.02-106.17"/>
                <path class="cls-5" d="m306.61,471.47s-35.41-7.76-53.1-31.62"/>
                <path class="cls-5" d="m380.01,509.22s.89-29.7-21.77-47.81"/>
                <path class="cls-5" d="m431.32,521.34s-23.91,20.71-64.44,16.44"/>
              </g>
              <g>
                <g>
                  <path class="cls-42" d="m577.45,696.97s-158.76-239.88-246.17-148.6c-30.58,35.69,238.36,166.6,238.36,166.6l7.81-18Z"/>
                  <path class="cls-1" d="m370.82,552.35s145.82,82.06,188.33,125.69"/>
                  <path class="cls-1" d="m475.51,615.61s-11.91-13.87-16.77-44.53"/>
                  <path class="cls-44" d="m534,697.02l-124.26-162.74c80.67,31.22,167.71,162.7,167.71,162.7l-6.88,15.85-11.12-2.89c-6.2-3.1-14.94-7.51-25.45-12.92Z"/>
                  <path class="cls-26" d="m604.36,708.69s-83.26-415.69-248.32-346.13c-59.75,29.35,228.31,365.5,228.31,365.5l20.01-19.37Z"/>
                  <path class="cls-12" d="m399.22,381.95s144.14,188.85,186.52,315"/>
                  <path class="cls-12" d="m375.94,424.22s46.92,8.05,66.75,17.82"/>
                  <path class="cls-12" d="m496.28,444.18s-6.38,43.54-2.95,73.92"/>
                  <path class="cls-12" d="m483.12,572.08s29.1.17,49.26,11.04"/>
                </g>
                <path class="cls-1" d="m430.15,587.22s-30.05-4.48-60.9,4.45"/>
              </g>
            </g>
            <path class="cls-43" d="m974.23,751.17H259.08s18.71-97.25,155.34-83.07c59.44-140.22,212.64-117.99,256.12-74.78,124.68-71.4,303.68,60.91,303.68,157.85Z"/>
            <path class="cls-26" d="m974.23,751.17h-471.89s12.34-64.17,102.5-54.81c39.22-92.53,140.31-77.86,169.01-49.34,82.27-47.11,200.38,40.19,200.38,104.16Z"/>
            <path class="cls-43" d="m482.09,163.71s-4.87,18.43,16.71,24.06c7.51-11.26-7.15-22.78-16.71-24.06Z"/>
            <path class="cls-26" d="m516.85,128.98s15-8.23,10.01-27.38c-15.73,10.9-10.01,27.38-10.01,27.38Z"/>
          </g>
          <g>
            <path class="cls-31" d="m594.02,801.79c0,6.17,62.7,11.17,140.04,11.17s140.04-5,140.04-11.17-62.7-11.17-140.04-11.17-140.04,5-140.04,11.17Z"/>
            <path class="cls-40" d="m714.09,768.38s2.65,18.96,0,31.47c-55.74,7.96-89.1,5.69-87.59,0,1.52-5.69,17.06-24.65,34.88-30.33,20.85-6.83,52.7-1.14,52.7-1.14Z"/>
            <path class="cls-24" d="m661.39,769.52c2.67-.87,5.52-1.54,8.46-2.04,28.04,11.78,23.46,24.83,14.29,18.62-7.4-5.01-24.52-9.46-33.43-11.54,3.4-2.09,6.99-3.86,10.68-5.04Z"/>
            <path class="cls-28" d="m652.67,526.85s-2.96,64.84-2.05,90.62c.91,25.78,10.77,152.05,10.77,152.05,0,0,32.23,4.55,57.25-1.14l2.27-194.13,1.14-47.4h-69.39Z"/>
            <path class="cls-21" d="m694.37,599.48c0,19.17-15.54,34.71-34.71,34.71-2.83,0-5.58-.38-8.21-1.02-.41-6.73-.71-12.17-.83-15.7-.43-12.16,0-32.99.58-51.62,2.72-.68,5.54-1.08,8.47-1.08,19.17,0,34.71,15.54,34.71,34.71Z"/>
            <path class="cls-4" d="m703.47,770.65s4.55-119.43,3.79-154.69c-.76-35.26,0-68.91,0-68.91"/>
            <path class="cls-40" d="m831.98,747.48s7.24,23.18,8,31.52c-40.95,21.99-74.32,24.94-79.63,21.95-5.31-2.99,12.65-32.57,12.65-32.57l58.97-20.9Z"/>
            <path class="cls-24" d="m773,768.38l19.58-6.94c20.17,2.42,22.27,12.61,11.37,11.49-9.8-1.01-25.59,1.15-35.13,2.72,2.33-4.23,4.18-7.27,4.18-7.27Z"/>
            <path class="cls-28" d="m707.27,536.33s6.7,52.33,15.86,83.42c9.16,31.09,49.88,148.63,49.88,148.63,0,0,51.05-6.83,62.42-25.03l-41.71-174.42,1.52-47.02-87.97,14.41Z"/>
            <path class="cls-21" d="m728.52,565.91c18.86,0,34.14,15.29,34.14,34.14s-15.29,34.14-34.14,34.14c-.31,0-.6-.04-.91-.05-1.86-5.79-3.39-10.71-4.48-14.4-4.26-14.47-7.99-33.53-10.76-49.78,4.81-2.59,10.31-4.06,16.15-4.06Z"/>
            <path class="cls-4" d="m822.56,754.07s-46.38-147.21-49.56-162.76c-3.17-15.55-4.3-45.01-4.3-45.01"/>
            <path class="cls-39" d="m652.67,526.85h69.39l-.17,7.08,73.35-12.01-1.13,35.08c-24.8.68-66.28,4.56-80.08,22.36-18.48-9.34-42.62-16.05-62.61-20.49.6-17.78,1.25-32.02,1.25-32.02Z"/>
            <path class="cls-27" d="m469.15,256.41s2.02,3.63,11.88.85c13.2,4.21,14.66,5.2,14.66,5.2l-5.05-26.68-13.4-17.95-10.36-2.02-5.31,3.29,1.77,11.38.31,14.38s2.86,9.98,5.5,11.56Z"/>
            <path class="cls-16" d="m686.71,150.34s-30,18.96-51.24,40.7c-21.23,21.74-48.03,53.08-48.03,53.08,0,0-77.86-8.89-87.97-16.07-10.11-7.18-17.69-22.35-25.78-21.34-8.09,1.01,1.52,16.68,5.06,23.26,1.52,17.69,7.58,27.3,19.21,33.87,76.34,40.44,96.56,42.47,105.66,35.89,9.1-6.57,67.24-56.62,67.24-56.62l15.85-92.77Z"/>
            <path class="cls-16" d="m470.66,222.22h0c1.97-3.15,1.02-7.3-2.12-9.27l-9.04-5.67c-3.15-1.97-7.3-1.02-9.27,2.12h0c-1.97,3.15-1.02,7.3,2.12,9.27l9.04,5.67c3.15,1.97,7.3,1.02,9.27-2.12Z"/>
            <path class="cls-16" d="m472.33,238.32h0c1.74-2.77.9-6.43-1.87-8.17l-7.96-4.99c-2.77-1.74-6.43-.9-8.17,1.87h0c-1.74,2.77-.9,6.43,1.87,8.17l7.96,4.99c2.77,1.74,6.43.9,8.17-1.87Z"/>
            <path class="cls-16" d="m470.69,249.27h0c1.36-2.17.71-5.03-1.46-6.39l-6.23-3.91c-2.17-1.36-5.03-.71-6.39,1.46h0c-1.36,2.17-.71,5.03,1.46,6.39l6.23,3.91c2.17,1.36,5.03.71,6.39-1.46Z"/>
            <path class="cls-16" d="m473.25,260.83h0c1.36-2.17.71-5.03-1.46-6.39l-6.23-3.91c-2.17-1.36-5.03-.71-6.39,1.46h0c-1.36,2.17-.71,5.03,1.46,6.39l6.23,3.91c2.17,1.36,5.03.71,6.39-1.46Z"/>
            <path class="cls-20" d="m635.48,191.03c21.23-21.74,51.24-40.7,51.24-40.7l-15.85,92.77s-13.32,11.46-28.2,24.14c-10.75-16.91-27.4-30.5-40.85-39.62,9.56-10.83,22.39-25.06,33.66-36.59Z"/>
            <path class="cls-20" d="m786.2,342.49s5.67-57.05,15.1-103.94c-69.26-1.01-74.53,1.52-74.53,1.52l-2.75,130.43,62.18-28.01Z"/>
            <path class="cls-33" d="m710.76,144.96l-24.05,5.38s-66.66,182.76-62.11,385.99c130.43,24.27,176.69,3.03,176.69,3.03l-9.1-196.41s-18.56-.76-39.99-6.83c-12.33-90.24-22.95-121.33,24.82-184.28l-26.14-4.86-40.13-2.04Z"/>
            <path class="cls-20" d="m710.76,144.96l40.13,2.04s0,0,12.43,2.31c-7.22,7.86-27.64,31.37-36.54,54.87l-41.75-7.58s9.27-32.64,15.65-49.38l10.09-2.26Z"/>
            <path class="cls-22" d="m678.37,65.12s-7.21,1.85-12.19-2.44c-4.98-4.29-1.91-11.27,5.05-8.48-8.8-9.79-5.89-19.49,3.91-12.14-9.51-15.75-6.66-22.61,1.38-26.24,8.04-3.63,17.7,10.73,17.7,10.73,0,0-3.43-9.66-.03-12.9,3.4-3.24,13.53-.57,14.22,11.2,16.75,2.47,28.23,11.47,28.23,11.47,0,0-.08-5.74,2.1-7.17,2.18-1.43,3.78,4.03,1.67,8.22,8.33-5.11,9.39,1.03,4.37,4.07,5.88,12.01,9.41,38.65,3.2,50.78-6.21,12.14-16.05,18.29-16.05,18.29l-11.26-57.81-42.3,12.42Z"/>
            <path class="cls-45" d="m688.68,43.78c-3.99,1.12-7.48,3.69-9.45,7.33-3.09,5.7-5.5,15.88,1.34,31.46,7.52,17.22,10.12,35.25,10.68,43.69.56,8.45,3.81,13.67,27.08-.11,23.27-13.78,20.88-33.91,17.97-49.5-2.92-15.59-3.02-23.73-3.02-23.73,0,0-18.19-16.55-44.59-9.14Z"/>
            <path class="cls-22" d="m697.55,64.57s10.6-6.3,19.13-1.18c4.46-1.55-3.75-6.85-8.54-7.37-4.78-.51-12.18,2.29-10.59,8.54Z"/>
            <polygon class="cls-45" points="736.96 78.31 750.89 147 719.93 170.31 710.76 144.96 710.47 123.48 736.96 78.31"/>
            <path class="cls-14" d="m710.71,141.1c24.18-12.4,26.88-41.48,26.88-41.48l-22.97,16.79-4.14,7.07.24,17.62Z"/>
            <path class="cls-22" d="m677.19,72.55c-.45-1.99-.75-3.87-.9-5.63,3.06-1,6.35-.65,8.14,2.72,0,0-3.54.74-7.24,2.91Z"/>
            <path class="cls-22" d="m691.24,126.27c-.33-5.06-1.41-13.56-3.83-23.26,1.77-1.71,4.63-3.71,8.91-4.61,15.98-2.62,22.97,6.19,22.97,6.19,0,0,4.95-4.64,8.04-16.5,2.63-10.1-.57-35.18-1.58-41.92,4.8,2.59,8.11,5.77,8.11,5.77,0,0-.5,9.12,2.42,24.71,2.92,15.59,5.3,35.72-17.97,49.5-23.27,13.78-26.52,8.56-27.08.11Z"/>
            <path class="cls-19" d="m704.85,88.99c.59,1.75,3.53,2.33,6.58,1.31,3.05-1.03,5.04-3.27,4.45-5.02-.59-1.75-3.53-2.33-6.58-1.31-3.05,1.03-5.04,3.27-4.45,5.02Z"/>
            <path class="cls-19" d="m685.89,97.39c-.6-2.06-1.27-4.14-2-6.24,2.65-.58,5.02.05,5.54,1.59.53,1.56-1.02,3.52-3.54,4.65Z"/>
            <path class="cls-24" d="m694.37,107.42s4.63-1.41,12.26-5.93c1.53-.77,3.35,1.94-1.92,5.02-5.27,3.09-8.62,3.12-9.63,2.66-1.01-.46-1.56-1.46-.71-1.75Z"/>
            <path class="cls-45" d="m735.07,81.8c3.71,3.31,9.96,2.34,13.97-2.15,4.01-4.5,4.25-10.82.55-14.12-3.71-3.31-9.96-2.34-13.97,2.15-4.01,4.5-4.25,10.82-.55,14.12Z"/>
            <path class="cls-41" d="m740.08,83.76c-2.71-3.47-2.19-9.05,1.45-13.14,2.5-2.8,5.87-4.23,8.95-4.11,2.71,3.47,2.19,9.05-1.46,13.14-2.5,2.8-5.87,4.23-8.95,4.11Z"/>
            <path class="cls-35" d="m699.77,73.37c1.2-1.08,2.61-1.93,4.12-2.55,1.51-.62,3.14-.99,4.8-1.04.41.01.83-.02,1.24.03l1.23.16c.41.08.8.22,1.2.33.2.06.4.11.59.18l.56.26c1.54.62,2.78,1.76,3.87,2.92-1.34-.89-2.66-1.76-4.15-2.23-1.45-.51-2.99-.79-4.53-.71-1.54.03-3.07.33-4.57.79-1.49.48-2.96,1.08-4.37,1.85Z"/>
            <path class="cls-25" d="m700.79,77.89c.42-1.5,1.55-2.73,2.86-3.61,1.33-.88,2.9-1.36,4.47-1.51,1.58-.18,3.13.1,4.6.5.72.24,1.42.56,2.1.87.65.4,1.3.79,1.88,1.28-.78.04-1.51-.03-2.22-.08-.72-.02-1.42-.06-2.11-.11-1.38-.01-2.71-.09-4.01.06-1.3.12-2.56.35-3.81.76-1.25.41-2.49.98-3.75,1.83Z"/>
            <path class="cls-25" d="m689.76,79.86c-1.65.17-3.06.3-4.37.74-.66.2-1.27.48-1.88.85-.63.35-1.18.83-1.88,1.32.14-.82.49-1.63,1.1-2.25.57-.66,1.35-1.15,2.18-1.4.83-.27,1.71-.33,2.55-.2.83.13,1.64.41,2.3.94Z"/>
            <g>
              <path class="cls-45" d="m687.24,76.32s7.15,12.5,5.24,23.14c-.79,2.98,2.52,3.77,6.56.06,4.05-3.7-7.4-19.66-11.8-23.2Z"/>
              <path class="cls-9" d="m699.83,97.99c-2.51,4.97-8.14,4.45-7.35,1.47,1.92-10.64-5.55-23.7-5.55-23.7"/>
            </g>
            <path class="cls-35" d="m686.12,76.96c-.99.53-1.9.96-2.78,1.46-.45.24-.87.5-1.31.78-.44.27-.86.57-1.35.86.37-1.07,1.22-1.92,2.2-2.47.49-.27,1.02-.48,1.57-.59.54-.12,1.11-.16,1.67-.04Z"/>
            <path class="cls-17" d="m692.11,131.01c-.51-1.34-.75-2.97-.87-4.74-.56-8.45-3.16-26.48-10.68-43.69-6.84-15.59-4.43-25.77-1.34-31.46,1.97-3.64,5.47-6.21,9.45-7.33,11.86-3.33,22.06-1.82,29.7.85,4.99,12.34,26.02,71.89-26.27,86.37Z"/>
            <path class="cls-24" d="m583.61,228.05l-24.32-89.53c-2.57-9.46-8.51-17.65-16.71-23.02h0l30.78,110.97,10.25,1.58Z"/>
            <path class="cls-28" d="m561.19,240.37c-.91,9.83,5.06,18.42,13.35,19.2,8.29.77,15.75-6.57,16.66-16.4.91-9.83-5.06-18.42-13.35-19.2-8.29-.77-15.75,6.57-16.66,16.4Zm4.34.4c.65-6.99,5.95-12.2,11.84-11.66,5.89.55,10.14,6.66,9.49,13.64-.65,6.99-5.95,12.2-11.84,11.66-5.89-.55-10.14-6.66-9.49-13.64Z"/>
            <path class="cls-24" d="m598.67,217.69l-77.64-51.57c-8.16-5.42-14.06-13.65-16.57-23.12h0l96.01,64.51-1.8,10.18Z"/>
            <path class="cls-28" d="m596.25,210.69c-1.88,8.11,4.39,16.49,14,18.72,9.62,2.23,18.94-2.53,20.82-10.63,1.88-8.11-4.39-16.49-14-18.72-9.62-2.23-18.94,2.53-20.82,10.63Zm29.79,6.92c-1.34,5.76-7.96,9.14-14.8,7.56-6.83-1.59-11.29-7.54-9.95-13.31,1.34-5.76,7.96-9.14,14.8-7.56,6.83,1.59,11.29,7.54,9.95,13.31Z"/>
            <path class="cls-32" d="m566.85,192.36c0,1.29,1.05,2.34,2.34,2.34s2.34-1.05,2.34-2.34-1.05-2.34-2.34-2.34-2.34,1.05-2.34,2.34Z"/>
            <line class="cls-11" x1="771.37" y1="340.46" x2="774.64" y2="545.57"/>
            <path class="cls-23" d="m724.03,370.51c-15.33-.39-61.25-33.85-81.17-48.9,1.99-10.98,4.06-21.6,6.18-31.79l101.32,33.09c.61,4.28,1.23,8.66,1.85,13.23,3.61,1.02,7.12,1.88,10.5,2.62-8.82,12.36-25.07,32.1-38.68,31.75Z"/>
            <path class="cls-38" d="m649.63,373.22s40.65,13.55,82.81,10.42c-1.62,79.22-6.01,94.74-58.13,91.34-41.74-5.77-30.69-50.67-24.67-101.76Z"/>
            <path class="cls-38" d="m680.37,214.74s15.21,50.61,43.8,62.75c28.6,12.13-40.88-38.03-43.8-62.75Z"/>
            <path class="cls-38" d="m649.63,373.22s40.65,13.55,82.81,10.42c-.15,7.07-.31,13.62-.54,19.71-15.95.53-45.49-.2-85-8.59.9-6.99,1.87-14.2,2.73-21.55Z"/>
            <path class="cls-38" d="m624.39,516.87c34.81,4.98,108.75,12.61,175.89.32l1.03,22.17s-46.26,21.23-176.69-3.03c-.15-6.51-.22-13-.22-19.46Z"/>
            <path class="cls-45" d="m777.03,151.85s57.63,40.19,33.37,88.73c-24.27,48.53-64.71,104.14-76.84,112.23-12.13,8.09-50.56-10.62-78.36-36.4-27.81-25.78-38.42-35.39-55.11-38.42-16.68-3.03-19.72-5.56-21.74-15.67-2.02-10.11-1.52-14.66-7.58-15.67-6.07-1.01-10.62-8.09-5.56-10.62,5.06-2.53,28.31-7.58,35.89-13.14,7.58-5.56,11.12-13.14,14.66-13.65,3.54-.51,9.16,2.02,8.62,10.62-.54,8.59,13.11,22.75,17.66,28.31,4.55,5.56,68.42,39.94,68.42,39.94l31.6-54.1s-5.48-41.96,34.97-82.15Z"/>
            <path class="cls-20" d="m742.07,234s-5.48-41.96,34.97-82.15c0,0,57.63,40.19,33.37,88.73-10.7,21.41-24.55,44.19-37.73,63.66-12.2-28.19-36.31-34.66-50.67-35.88l20.07-34.36Z"/>
            <path class="cls-36" d="m772.67,304.24c-12.2-28.19-36.31-34.66-50.67-35.88l8.86-15.16c13.89,3.72,40.47,13.35,52.56,34.62-3.58,5.65-7.19,11.16-10.75,16.43Z"/>
            <line class="cls-3" x1="710.47" y1="288.1" x2="725.47" y2="297.2"/>
            <path class="cls-16" d="m697.9,346.17c5.53-10.2,16.33-17.12,28.75-17.12,8.35,0,15.94,3.15,21.71,8.3-6.37,7.81-11.59,13.32-14.8,15.46-6.39,4.26-20.08,1.08-35.66-6.64Z"/>
            <polygon class="cls-28" points="583.8 196.31 600.47 207.51 598.67 217.69 580.57 205.66 583.8 196.31"/>
            <polygon class="cls-28" points="583.61 228.05 573.36 226.46 568.63 209.41 578.27 208.41 583.61 228.05"/>
            <path class="cls-7" d="m742.07,234s27.36-69.97,64.28-51.35"/>
            <polyline class="cls-7" points="757.23 148.17 716.78 181.44 706.18 145.98"/>
          </g>
          <g>
            <path class="cls-31" d="m889.68,802.25c0,3.63,45.5,6.57,101.64,6.57s101.64-2.94,101.64-6.57-45.5-6.57-101.64-6.57-101.64,2.94-101.64,6.57Z"/>
            <g>
              <g>
                <g>
                  <path class="cls-42" d="m991.78,702.29l.83-167.34s-79.41,102.99-.83,167.34Z"/>
                  <path class="cls-42" d="m991.78,702.29l.83-167.34s78.39,103.77-.83,167.34Z"/>
                  <line class="cls-8" x1="992.61" y1="534.95" x2="991.78" y2="702.29"/>
                  <line class="cls-8" x1="992.26" y1="605.1" x2="965.29" y2="586.6"/>
                  <line class="cls-8" x1="992.05" y1="646.82" x2="1027.25" y2="620.02"/>
                </g>
                <g>
                  <g>
                    <path class="cls-13" d="m997.27,726.31l-122.49-114.01s21.91,128.19,122.49,114.01Z"/>
                    <path class="cls-34" d="m997.27,726.31l-122.49-114.01s129.43,12.68,122.49,114.01Z"/>
                    <line class="cls-8" x1="874.78" y1="612.29" x2="997.27" y2="726.31"/>
                    <line class="cls-8" x1="926.13" y1="660.09" x2="894.25" y2="667.39"/>
                    <line class="cls-8" x1="956.67" y1="688.51" x2="960.82" y2="644.47"/>
                  </g>
                  <g>
                    <path class="cls-26" d="m1004.15,727.08l-67.99-152.91s-30.09,126.52,67.99,152.91Z"/>
                    <path class="cls-26" d="m1004.15,727.08l-67.99-152.91s114.1,62.4,67.99,152.91Z"/>
                    <line class="cls-8" x1="936.16" y1="574.18" x2="1004.15" y2="727.08"/>
                    <line class="cls-8" x1="964.67" y1="638.28" x2="932.48" y2="632.5"/>
                    <line class="cls-8" x1="981.62" y1="676.4" x2="1002.7" y2="637.51"/>
                  </g>
                </g>
                <g>
                  <g>
                    <path class="cls-13" d="m989.94,726.31l122.49-114.01s-21.91,128.19-122.49,114.01Z"/>
                    <path class="cls-34" d="m989.94,726.31l122.49-114.01s-129.43,12.68-122.49,114.01Z"/>
                    <line class="cls-8" x1="1112.43" y1="612.29" x2="989.94" y2="726.31"/>
                    <line class="cls-8" x1="1061.08" y1="660.09" x2="1092.96" y2="667.39"/>
                    <line class="cls-8" x1="1030.54" y1="688.51" x2="1026.39" y2="644.47"/>
                  </g>
                  <g>
                    <path class="cls-43" d="m983.06,727.08l67.99-152.91s30.09,126.52-67.99,152.91Z"/>
                    <path class="cls-43" d="m983.06,727.08l67.99-152.91s-114.1,62.4-67.99,152.91Z"/>
                    <line class="cls-8" x1="1051.05" y1="574.18" x2="983.06" y2="727.08"/>
                    <line class="cls-8" x1="1022.55" y1="638.28" x2="1054.74" y2="632.5"/>
                    <line class="cls-8" x1="1005.6" y1="676.4" x2="984.51" y2="637.51"/>
                  </g>
                </g>
              </g>
              <rect class="cls-18" x="916.12" y="725.67" width="144.95" height="76.69"/>
              <rect class="cls-15" x="916.12" y="725.67" width="38.02" height="76.69"/>
            </g>
          </g>
          <g>
            <path class="cls-31" d="m83.06,806.21c0,3.64,31.69,6.6,70.78,6.6s70.78-2.95,70.78-6.6-31.69-6.6-70.78-6.6-70.78,2.95-70.78,6.6Z"/>
            <path class="cls-10" d="m238.27,529.08s-114.14,28.12-87.25,194.59"/>
            <path class="cls-10" d="m185.21,512.07s-33.48,84.35-27.11,194.59"/>
            <path class="cls-10" d="m95.82,578.65s64.68,2.22,56.76,136.88"/>
            <path class="cls-10" d="m224.63,610.52s-84.22-19.29-78.56,99.83"/>
            <path class="cls-26" d="m203.41,551.07c1.18,5.29,1.07,9.66.24,13.24,3.46-3.45,6.7-7.25,9.65-11.43,22.91-32.37-6.23-61.06-6.23-61.06-4.56-5.49-15.41,1.5-20.13-1.93-4.72-3.43,5.28-10.79,4.07-14.52-1.21-3.73-11.94-8.42-22.74-10.45-10.8-2.03-18.19-15.86-36.49-8.98-7.61,2.86-14.48,10-20.44,18.38,19.68-12.19,42.23,8.64,46.47,11.7,4.55,3.28-12.99,1.57-23.42.4-8.32-.94-21.92-4.6-27.09-6.05-5.29,8.46-9.68,17.41-12.98,24.16,4.14-.41,9.5-7.05,16.98-10.71,9.24-4.52,28.25,4.55,31.75,7.5,3.5,2.95-8.56,6.93-27.15,7.05-11.46.07-19.59.87-24.15,1.47-6.18,13.48-1.63,22.33-2.98,33.33-1.39,11.34-5.71,12.59-5.71,12.59,0,0,10.33,11.63,31.16,22.89,8.39-19.82,31.72-48.32,34.75-46.25,3.45,2.36,6.41,5.95,3.78,20.05-2.02,10.85-13.35,27.39-18.46,34.44,5.19,1.16,10.65,1.65,16.24,1.43,11.51-10.46,12.55-34.41,16.39-46.23,4.44-13.67,5.9-17.33,8.66-16.09,2.76,1.24,5.36,24.64,3.63,40.22-.95,8.58-6.62,15.15-11.53,19.33,6.58-1.86,13.11-4.62,19.33-8.31,17.81-22.08,5.35-53.52,6.03-57.75.77-4.79,5.59,10.15,10.38,31.59Zm-74.39-28.93s-6.02,3.63-11.4,2.91c-5.38-.72-11.89-7.84-.49-9.11,11.41-1.27,15.81,4.38,11.88,6.2Zm71.01-11.45c-1.28-3.39,4.55-1.06,6.57,2.82,2.02,3.88,3.87,9.79-.16,7.48-4.04-2.31-6.41-10.29-6.41-10.29Z"/>
            <path class="cls-42" d="m274.8,564.43c8.24,6.7,16.66,17.59,20.15,22.33,2.16-5.2,3.76-11.11,4.67-16.92-7.7-7.97-28.42-20.17-33.84-21.77-6.44-1.9-6.16-6.05,2.05-2.7,6.3,2.57,24.27,14.91,32.3,20.52.07-.63.13-1.26.18-1.89.67-8.74-2-15.98-4.12-20.22-6.7-2.37-18.05-5.74-22.14-5.94-5.85-.28-13.99-.49-8.38-2.84,5.3-2.47,19.8,2.02,28.41,5.09-.16-.24-.27-.39-.27-.39,0,0-6.82-10.8-9.84-17.77-3.02-6.97-10.34-19.64-21.14-14.52-10.79,5.12-13.5,22.33-13.5,22.33-1.52,5.99-4.85,2.61-4.83-.79.02-3.39-4.51-15.97-12.22-17.44-20.17-3.15-29.82,11.14-33.88,27.33-.54,2.17-.86,4.3-1.01,6.38,11.72-15.41,22.71-7.67,25.69-4.82-3.94,1.43-19.85,8.36-25.66,10.9.7,8.15,3.85,15.27,7.07,20.62,3.79-11.74,21.86-20.4,24.45-21.22,2.86-.91,7.6-4.05,7.76-2.86.16,1.19-6.64,5.4-17.7,12.98-7.04,4.83-10.2,11.41-11.57,15.57.02.02.03.05.05.07,4.71,6.54,10.82,15.92,16.33,19.19-2.73-19.64,12.62-36.38,16.88-36.83,4.47-.47,1.19,4.65-4.98,15.36-4.92,8.54-6.96,19.19-7.58,23.16,4.91,2.16,8.27,7.22,13.9,8.37.94.19,1.99.32,3.1.4-2.48-1.94-6.38-4.84-6.7-10.68-.39-7.21,7.91-23.37,11.13-22,3.22,1.37,3.2,4.76-.16,16.37-2.38,8.21-.21,13.83,1.27,16.43,5.43-.11,11.59-.68,16.89-.66,6.76.03,8.84.62,13.58-2.17-1.05-1.98-3.21-5.24-7.68-10.27-8.61-9.71-12.27-25.67-.95-14.76,9.32,8.64,11.28,18.56,11.67,23.05.39-.27.78-.55,1.21-.86,2.98-2.16,5.6-5.7,7.8-9.99-5.55-17.12-25.95-25.19-30.43-29.39-4.73-4.43,1.3-5.51,12.05,3.23Zm12.6,4.26c.58,2.46-4.06,1.11-5.27-4.5,0,0,4.69,2.04,5.27,4.5Z"/>
            <path class="cls-43" d="m51.24,597.34c-7.37,3.35-36.28,4.81-50.46,23.86.93,6.29,2.71,11.82,5.52,15.78.4.56.78,1.08,1.15,1.58,2.39-5.45,9.03-17.02,24.33-23.87,18.75-8.85,7.43,9.55-7.43,18.05-7.71,4.41-11.78,7.56-13.94,9.59,4.75,5.49,7.6,5.63,16.06,8.45,6.63,2.21,14.1,5.53,20.84,7.96,2.94-2.62,8.03-8.74,8.53-20,.71-15.92,2.12-20.17,6.72-20.52,4.6-.35,8.14,23.35,4.6,32.2-2.86,7.16-8.98,9.15-12.89,10.52,1.42.36,2.78.65,4.04.81,7.53.94,13.86-3.95,20.91-4.58.9-5.22,2.86-19.4.32-32.15-3.18-15.99-5.12-23.78.27-21.3,5.13,2.36,17.24,29.77,5.53,53.16,8.27-1.75,19.88-10.89,28.53-17.07.03-.02.06-.04.09-.06.05-5.78-1.12-15.34-7.87-24.35-10.62-14.15-17.34-22.29-16.63-23.71.71-1.42,5.31,4.51,8.49,6.86,2.89,2.13,21.81,20.59,21.58,36.86,6.28-5.33,13.23-12.89,17.55-22.78-6.18-5.63-23.14-21.02-27.45-24.47,4.93-2.3,21.93-7.32,30.06,16.89.69-2.66,1.19-5.45,1.43-8.4,1.77-21.94-4.25-43.88-30.79-48.48-10.26-1.42-21.23,12.38-22.65,16.63-1.42,4.25-7.01,7.07-6.37-1.06,0,0,3.89-22.65-7.43-33.62-11.32-10.97-25.83,1.77-32.55,9.2-6.72,7.43-19.82,18.05-19.82,18.05,0,0-.19.14-.5.37,12.06-.2,32.08.31,37.65,5.65,6.02,5.31-4.25,2.12-11.68,0-5.2-1.49-20.8-2.08-30.18-1.95-4.44,4.4-10.84,12.33-13.7,23.53-.2.8-.39,1.62-.57,2.43,12.42-3.62,40.09-11.44,49.05-11.99,11.68-.71,10.26,4.6,1.42,4.25-7.45-.3-38.51,6.18-51.5,12.89-1.32,7.65-1.82,15.72-1.32,23.12,6.36-4.44,21.49-14.5,34.62-19.38,17.13-6.37,24.21-2.48,16.42,1.06Zm-25.48-4.46c-3.89,6.51-10.26,6.23-8.49,3.4,1.77-2.83,8.49-3.4,8.49-3.4Z"/>
            <path class="cls-43" d="m215.07,623.88c-1.88,3.13-27.21,16.76-27.72,40.88,2.02,5.81,4.76,11.18,8.02,16-.9-5.41-.99-12.79,3.09-18.89,7.41-11.09,21.92-24.89,24.4-24.18,2.48.71,1.41,3.89-3.18,15.22-3.98,9.8-16.42,25.95-14.67,39.06,3.51,3.2,7.33,5.87,11.35,7.96.54-7.39,2.23-24.35,6.86-32.52,6.02-10.62,9.91-11.32,13.45-10.97,3.1.31,2.67,31.64-2.74,49.13,19.72,4.08,32.81,2.18,32.81,2.18,0,0-2.12-3.18,3.18-11.32,5.15-7.9,12.96-11.16,16.32-23.32-2.64-2.89-7.49-7.86-14.91-14.19-12.03-10.26-17.69-19.46-13.8-19.46s21.23,4.51,24.77,12.52c2.86,6.48,2.72,13.74,5.18,16.27,1.55-6.2,3.6-14.43,4.79-22.83-4.16-1.89-15.02-6.96-20.94-10.91-7.43-4.95-19.77-13.45-15.02-13.09,4.43.33,30.52-.87,36.64,17.85.72-8.71.16-17.12-3.23-23.15-8.14-14.51-20.52-9.55-28.66-14.15-8.14-4.6-17.69-7.43-20.52-5.66-2.83,1.77-.35,12.03-5.31,11.68-4.95-.35-8.18-10.85-14.15-9.77,0,0-34.68,2.7-37.51,36.31-.37,4.34-.34,8.59.02,12.73,1.42-2.79,3.75-5.69,7.41-8.48,14.86-11.32,26.19-18.4,24.06-14.86Zm51.31,39.28c6.72,7.08-1.42,8.14-5.31,5.66-3.89-2.48-5.82-8.14-5.82-8.14-1.56-3.34,4.4-4.6,11.13,2.48Zm-60.86-45.65c-3.89-.71.55-3.54,3.99-4.95,3.44-1.42,8.51.27,5.82,1.77,0,0-5.92,3.89-9.81,3.18Z"/>
            <path class="cls-20" d="m195.11,806.47h-83.72c-22.24-13.95-37.04-38.68-37.04-66.87,0-14.31,3.83-27.72,10.49-39.29h136.82c6.66,11.57,10.49,24.98,10.49,39.29,0,28.19-14.8,52.91-37.04,66.87Z"/>
            <path class="cls-24" d="m75.98,723.67c1.72-8.34,4.75-16.2,8.86-23.35h136.82c4.12,7.16,7.15,15.02,8.86,23.35H75.98Z"/>
            <path class="cls-37" d="m203.44,737.48c0-13.25-2.89-25.81-7.98-37.17h26.21c6.66,11.57,10.49,24.98,10.49,39.29,0,28.19-14.8,52.91-37.04,66.87h-23.41c19.41-16.69,31.73-41.38,31.73-68.99Z"/>
            <path class="cls-30" d="m74.96,749.3c-.39-3.18-.61-6.41-.61-9.7,0-14.31,3.83-27.72,10.49-39.29h36.48c-1.05,14.83-8.91,38.6-46.36,48.99Z"/>
          </g>
        </g>
      </g>
    </g>
  </g>
</svg>