<svg width="136" height="136" viewBox="0 0 136 136" fill="none" xmlns="http://www.w3.org/2000/svg">
<g id="informasi tani icon 1">
<path id="Vector" d="M35.2894 28.1504C34.8762 28.2527 34.4801 28.399 34.0774 28.5465C33.6773 28.6987 33.2805 28.8659 32.889 29.0476C32.5059 29.2404 32.136 29.4588 31.772 29.6845C31.41 29.9107 31.0532 30.1475 30.7148 30.3993C30.3862 30.6656 30.0701 30.9411 29.7684 31.2251C30.6899 33.0858 33.0359 34.0151 36.0122 34.0125C39.0141 34.0112 41.9806 33.1671 44.4105 31.8239C44.1816 30.8237 43.6202 29.9022 42.7138 29.1919C41.8113 28.4895 40.5304 27.9372 38.9603 27.8218C38.5655 27.7864 38.1615 27.7733 37.7516 27.7811C37.3429 27.7923 36.9402 27.8441 36.5277 27.9057C36.1178 27.9674 35.7033 28.0507 35.2894 28.1504Z" fill="#FFC926"/>
<path id="Vector_2" d="M43.5684 23.4977C43.1677 23.5888 42.7735 23.7095 42.3826 23.8354C41.993 23.9633 41.6093 24.105 41.2335 24.2598C40.8649 24.4277 40.5094 24.6152 40.1631 24.8094C40.5895 26.7527 42.559 28.1654 45.3471 28.8318C48.1601 29.5106 51.143 29.3808 53.7245 28.6619C53.731 27.6762 53.4096 26.697 52.7164 25.8286C52.3701 25.3944 51.93 24.9871 51.3935 24.6192C50.857 24.2467 50.2346 23.9673 49.5099 23.718C49.1478 23.5973 48.772 23.4898 48.3883 23.4091C48.0079 23.3389 47.6177 23.2878 47.2196 23.2543C46.8228 23.2189 46.4168 23.2025 46.0089 23.2025C45.6029 23.211 45.1982 23.2524 44.7896 23.3002C44.3823 23.3501 43.9737 23.4163 43.5684 23.4977Z" fill="#FFC926"/>
<path id="Vector_3" d="M52.9171 20.8132C52.5341 20.8742 52.1615 20.9771 51.7956 21.0768C51.7444 22.9769 53.2509 24.7484 55.7026 25.9971C58.1725 27.2688 60.996 27.8185 63.5729 27.722C63.7985 26.8071 63.7146 25.8233 63.2601 24.8559C63.0325 24.3739 62.7137 23.8872 62.2946 23.4314C61.8762 22.9893 61.3581 22.5676 60.7396 22.1747C60.1198 21.7681 59.437 21.4789 58.7117 21.2329C58.349 21.1109 57.9758 21.0007 57.5954 20.9102C57.2163 20.8348 56.8306 20.7745 56.4397 20.7279C56.0495 20.6826 55.6553 20.6505 55.2598 20.6335C54.8657 20.6282 54.4722 20.6505 54.0813 20.68C53.6897 20.7102 53.3001 20.7541 52.9171 20.8132Z" fill="#FFC926"/>
<path id="Vector_4" d="M67.2923 20.6367C66.927 20.5475 66.5584 20.4721 66.1885 20.4111C65.8186 20.3488 65.448 20.3009 65.0794 20.2668C64.7108 20.234 64.3429 20.2452 63.9802 20.2537C63.4949 22.0022 64.4806 23.9895 66.4764 25.7151C68.4853 27.463 71.0019 28.6147 73.4424 29.0974C73.8543 28.3005 73.9933 27.3646 73.7854 26.3565C73.5801 25.3432 73.0056 24.3286 72.0342 23.3022C71.0491 22.3341 69.7767 21.4998 68.366 20.9948C68.0138 20.863 67.6563 20.7384 67.2923 20.6367Z" fill="#FFC926"/>
<path id="Vector_5" d="M75.6605 25.0173C75.8579 25.9591 76.3242 27.0157 77.0627 28.0428C78.5351 30.1278 80.6706 31.7379 82.8304 32.7558C83.3898 32.1039 83.7191 31.267 83.7388 30.2931C83.7565 29.325 83.483 28.1838 82.7746 27.0728C81.4216 24.7445 78.6991 23.0058 75.9982 22.4089C75.5713 23.1579 75.4703 24.0597 75.6605 25.0173Z" fill="#FFC926"/>
<path id="Vector_6" d="M88.1639 35.2363C88.3351 35.4848 88.5023 35.7439 88.6859 35.9833C89.0486 36.4686 89.452 36.91 89.8763 37.3213C90.2804 37.7561 90.7152 38.1463 91.1736 38.49C91.8361 38.0099 92.3234 37.3081 92.5536 36.4129C92.669 35.9656 92.7208 35.4698 92.6979 34.93C92.6867 34.6604 92.6572 34.3791 92.608 34.0885C92.5529 33.8045 92.4723 33.5166 92.3745 33.2182C91.6255 30.7797 89.5058 28.5714 87.163 27.381C86.0435 28.5602 85.9477 30.6341 86.8777 32.8286C87.0942 33.4044 87.3598 33.9567 87.6694 34.4781C87.8235 34.7385 87.9894 34.991 88.1639 35.2363Z" fill="#FFC926"/>
<path id="Vector_7" d="M99.9216 39.6483C99.8311 39.3452 99.7261 39.0435 99.6081 38.7438C99.4854 38.4474 99.3346 38.1673 99.1811 37.8833C98.8689 37.3193 98.5102 36.7729 98.1186 36.2587C97.7021 35.7695 97.2489 35.3156 96.7787 34.9083C96.1241 35.3241 95.6617 36.0017 95.4086 36.8503C95.2826 37.2747 95.2092 37.743 95.1908 38.2414C95.1803 38.4933 95.1889 38.7471 95.2033 39.0173C95.2125 39.2915 95.2361 39.5728 95.2748 39.8601C95.3502 40.4346 95.4794 41.0006 95.6558 41.547C95.8316 42.094 96.0087 42.6606 96.2514 43.1807C96.7531 44.2104 97.2942 45.2316 98.0169 46.0587C99.4533 45.4671 100.421 43.8865 100.283 41.4486C100.226 40.8577 100.103 40.253 99.9216 39.6483Z" fill="#FFC926"/>
<path id="Vector_8" d="M35.2081 20.6164C36.1867 19.1158 36.8347 17.7765 37.0465 16.533C37.2629 15.2987 37.0681 14.2231 36.4129 13.4098C35.4613 13.7745 34.4972 14.2014 33.5737 14.7136C32.6653 15.256 31.7701 15.8352 30.9568 16.5028C30.154 17.1889 29.3912 17.89 28.7433 18.6659C28.0999 19.449 27.5312 20.2432 27.0852 21.065C26.2142 22.7421 25.8607 24.2047 25.9755 25.4541C26.0778 26.6878 26.5946 27.6414 27.4125 28.2769C30.3383 26.266 33.2084 23.5632 35.2081 20.6164Z" fill="#FFC926"/>
<path id="Vector_9" d="M39.9224 14.5955C37.5325 17.2898 37.36 19.8405 38.5851 21.3818C41.7713 20.1868 45.0605 18.3169 47.5744 16.0129C48.2014 15.4429 48.7301 14.8362 49.1701 14.2827C49.6102 13.7239 49.9506 13.1638 50.1874 12.6148C50.6596 11.5169 50.7114 10.4649 50.2805 9.56506C49.3177 9.69558 48.3234 9.85364 47.3586 10.1494C46.3965 10.4518 45.433 10.7758 44.5351 11.229C43.6379 11.6868 42.7722 12.159 41.9996 12.7421C41.2283 13.3245 40.5226 13.9338 39.9224 14.5955Z" fill="#FFC926"/>
<path id="Vector_10" d="M56.2148 10.1181C55.3687 10.484 54.5771 10.89 53.8714 11.3688C51.0485 13.3318 50.3002 15.6536 51.0853 17.3713C54.3206 16.9915 57.8059 15.9979 60.6576 14.41C61.3679 14.0178 61.9923 13.5948 62.5249 13.1528C63.0581 12.7251 63.4982 12.2883 63.8392 11.8299C64.52 10.9182 64.8 9.95214 64.5994 9.01622C63.6766 8.91194 62.721 8.84176 61.7608 8.91194C60.8006 8.97096 59.8365 9.05295 58.9032 9.28447C58.4349 9.39006 57.9758 9.51074 57.5259 9.64585C57.0759 9.77571 56.6372 9.93049 56.2148 10.1181Z" fill="#FFC926"/>
<path id="Vector_11" d="M68.143 11.5623C65.086 12.7317 63.8563 14.7117 64.1868 16.4852C67.2746 16.8813 70.735 16.7561 73.7375 15.9087C75.225 15.5191 76.4312 14.9059 77.2608 14.2211C78.0905 13.5318 78.5634 12.6982 78.5857 11.782C77.7665 11.4521 76.883 11.2343 75.9871 11.0592C75.5392 10.974 75.0873 10.8992 74.6334 10.8428C74.1769 10.8028 73.7198 10.7785 73.2646 10.768C72.355 10.749 71.4597 10.7805 70.5926 10.9359C69.7276 11.0828 68.9064 11.2671 68.143 11.5623Z" fill="#FFC926"/>
<path id="Vector_12" d="M78.385 16.4826C77.5868 17.1358 77.1683 17.9406 77.1126 18.8037C79.8666 19.8983 83.1288 20.5083 86.0658 20.4355C87.5572 20.343 88.7686 20.1102 89.6947 19.6366C90.6181 19.169 91.2366 18.4941 91.4563 17.6533C88.6938 15.7559 84.9456 14.7845 81.8899 15.159C80.3532 15.3551 79.1884 15.8136 78.385 16.4826Z" fill="#FFC926"/>
<path id="Vector_13" d="M89.105 24.1444C89.6704 24.57 90.2777 24.9622 90.9172 25.3164C91.234 25.4974 91.5704 25.6509 91.8925 25.8273C92.2151 26.0018 92.545 26.1651 92.8802 26.3179C93.5459 26.6301 94.2555 26.8708 94.937 27.1115C95.6191 27.3516 96.3136 27.5404 97.0075 27.6696C97.3545 27.7339 97.6936 27.7798 98.0163 27.8133C98.3331 27.8546 98.6387 27.8789 98.9319 27.8867C99.5189 27.9018 100.056 27.85 100.535 27.7326C101.494 27.5011 102.214 27.0125 102.603 26.2831C100.48 23.9201 97.2122 22.226 94.3356 21.8554C91.3842 21.5701 89.6002 22.5664 89.105 24.1444Z" fill="#FFC926"/>
<path id="Vector_14" d="M99.4467 32.241C99.8783 32.7539 100.357 33.2445 100.871 33.7102C101.358 34.2001 101.885 34.6618 102.44 35.0888C102.716 35.3032 103.009 35.5026 103.291 35.7046C103.569 35.9099 103.854 36.1054 104.145 36.289C104.725 36.6583 105.329 36.9816 105.946 37.2492C108.319 38.3832 110.364 38.3674 111.402 37.1994C110.632 35.927 109.689 34.65 108.511 33.6472C107.932 33.1396 107.35 32.6588 106.711 32.2745C106.072 31.8928 105.424 31.5707 104.78 31.3248C104.458 31.2021 104.147 31.1024 103.848 31.0231C103.545 30.9483 103.245 30.9031 102.963 30.8729C102.398 30.8145 101.887 30.8362 101.435 30.928C100.528 31.111 99.8566 31.574 99.4467 32.241Z" fill="#FFC926"/>
<g id="Clip path group">
<mask id="mask0_28_102" style="mask-type:luminance" maskUnits="userSpaceOnUse" x="105" y="43" width="8" height="15">
<g id="96040bf02e">
<path id="Vector_15" d="M105.778 43.8223H112.142V57.4223H105.778V43.8223Z" fill="white"/>
</g>
</mask>
<g mask="url(#mask0_28_102)">
<g id="Group">
<path id="Vector_16" d="M105.869 45.4645C105.9 46.0371 105.983 46.6372 106.119 47.2537C106.245 47.8761 106.386 48.534 106.601 49.1905C106.705 49.5197 106.825 49.851 106.953 50.1848C107.067 50.5252 107.194 50.8669 107.334 51.2092C107.476 51.5503 107.626 51.8822 107.785 52.2042C107.867 52.3636 107.949 52.5223 108.029 52.6784C108.104 52.8378 108.181 52.9945 108.259 53.1486C108.574 53.7625 108.921 54.3331 109.292 54.8545C109.994 55.9092 110.754 56.7834 111.568 57.3836C111.933 56.4778 112.138 55.2874 112.086 53.9462C112.041 53.2811 111.942 52.5767 111.786 51.8487C111.744 51.6677 111.702 51.4834 111.66 51.2998C111.606 51.1174 111.547 50.9364 111.486 50.7534C111.361 50.3875 111.223 50.0189 111.071 49.6489C110.919 49.279 110.756 48.9203 110.587 48.5733C110.403 48.2336 110.205 47.9096 110.004 47.5961C109.596 46.9737 109.186 46.3972 108.729 45.9059C108.263 45.4199 107.788 44.9995 107.318 44.6539C106.849 44.3082 106.388 44.0361 105.911 43.8629C105.864 44.3476 105.839 44.8926 105.869 45.4645Z" fill="#FFC926"/>
</g>
</g>
</g>
<path id="Vector_17" d="M27.7293 70.8353C25.6351 72.0362 24.1522 74.4655 23.8734 76.8535C25.4823 77.5415 27.5207 77.0667 29.3919 75.7858C31.2873 74.4944 32.6292 72.7373 33.3074 70.8838C32.5991 70.3801 31.7405 70.066 30.7823 70.0279C30.3055 70.0096 29.7966 70.0555 29.281 70.186C28.776 70.3204 28.2553 70.5349 27.7293 70.8353Z" fill="#FFC926"/>
<path id="Vector_18" d="M27.0983 67.7803C28.4317 68.7896 30.4281 68.8205 32.4646 68.0551C34.5227 67.2844 36.1761 65.9412 37.2275 64.3494C36.144 63.0987 34.2774 62.414 32.0435 63.0679C29.8352 63.7224 27.9083 65.6323 27.0983 67.7803Z" fill="#FFC926"/>
<path id="Vector_19" d="M38.09 56.5151C35.862 56.6037 33.6819 57.9731 32.4266 59.7616C33.434 61.0098 35.2533 61.4846 37.3383 61.2426C39.4292 60.9914 41.2722 60.0614 42.624 58.8238C42.2554 58.1233 41.6821 57.5206 40.9161 57.1015C40.1527 56.6856 39.1754 56.4312 38.09 56.5151Z" fill="#FFC926"/>
<path id="Vector_20" d="M43.7317 55.717C45.7433 55.98 47.6394 55.4993 49.1787 54.6545C48.9924 53.9239 48.5943 53.2405 47.9771 52.6869C47.6695 52.4108 47.3062 52.1655 46.8897 51.9629C46.4686 51.7543 46.0004 51.5989 45.4908 51.5195C43.4176 51.1214 41.1043 51.8966 39.5244 53.2438C40.1573 54.6047 41.7772 55.5262 43.7317 55.717Z" fill="#FFC926"/>
<path id="Vector_21" d="M52.6488 52.2553C53.1001 52.332 53.5631 52.4094 54.0104 52.418C54.9017 52.4199 55.7891 52.3661 56.5919 52.092C56.5722 50.6602 55.7078 49.2278 53.8694 48.3864C52.0605 47.619 49.725 47.7049 47.9863 48.648C48.1207 49.3498 48.5084 50.0004 49.079 50.5514C49.6555 51.1147 50.3946 51.5266 51.2964 51.8841C51.7444 52.0539 52.1976 52.1779 52.6488 52.2553Z" fill="#FFC926"/>
<path id="Vector_22" d="M32.9493 45.9039C30.6249 47.3311 28.7308 49.8693 28.149 52.3767C27.8611 53.6385 27.9018 54.7148 28.2185 55.5917C28.5255 56.4601 29.0705 57.0956 29.7677 57.4826C31.4664 55.8317 32.8844 53.5861 33.6537 51.263C34.0039 50.0674 34.1554 49.018 34.0406 48.0971C33.9272 47.1802 33.5638 46.4181 32.9493 45.9039Z" fill="#FFC926"/>
<path id="Vector_23" d="M42.477 45.5249C42.7702 45.01 43.0109 44.5201 43.1919 44.0551C43.371 43.5835 43.4851 43.1244 43.5323 42.6863C43.6287 41.812 43.4589 41.0263 43.0044 40.417C40.5468 41.2132 38.2539 43.1638 37.1409 45.317C36.066 47.5521 36.3677 49.363 37.4872 50.3947C39.4456 49.2764 41.2565 47.5167 42.477 45.5249Z" fill="#FFC926"/>
<path id="Vector_24" d="M53.9875 37.4249C51.5791 37.6748 49.0272 38.8547 47.5377 40.6406C46.7762 41.4926 46.384 42.4311 46.2607 43.2352C46.1394 44.0524 46.306 44.7883 46.7002 45.3911C48.7353 44.7437 50.838 43.6373 52.3839 42.014C53.9376 40.4714 54.5535 38.7485 53.9875 37.4249Z" fill="#FFC926"/>
<path id="Vector_25" d="M61.3994 46.0423C61.6716 46.0777 61.9477 46.0981 62.2291 46.1145C62.5111 46.1427 62.7977 46.1597 63.0889 46.1643C64.255 46.1597 65.351 46.0745 66.344 45.8154C67.3337 45.5891 68.2158 45.2435 68.9215 44.7588C68.3909 44.1265 67.596 43.5336 66.6017 43.1008C65.6068 42.6994 64.417 42.4042 63.1401 42.4075C62.8213 42.4016 62.5072 42.4082 62.1996 42.4252C61.892 42.4554 61.5909 42.5026 61.2991 42.5564C60.714 42.6686 60.1631 42.8043 59.66 43.0063C58.6579 43.4366 57.8407 43.9521 57.2983 44.6099C57.9863 45.073 58.8645 45.4966 59.845 45.7268C60.3369 45.8547 60.8583 45.9787 61.3994 46.0423Z" fill="#FFC926"/>
<g id="Clip path group_2">
<mask id="mask1_28_102" style="mask-type:luminance" maskUnits="userSpaceOnUse" x="7" y="17" width="98" height="106">
<g id="596a15ebd6">
<path id="Vector_26" d="M7.24597 17.6296H104.602V122.216H7.24597V17.6296Z" fill="white"/>
</g>
</mask>
<g mask="url(#mask1_28_102)">
<g id="Group_2">
<path id="Vector_27" d="M31.2624 113.966C39.3879 119.187 49.056 122.215 59.4317 122.215C75.6985 122.215 90.2246 114.772 99.7949 103.106C90.7388 111.918 78.3757 117.347 64.7416 117.347C61.3843 117.347 58.1056 117.015 54.9325 116.387C42.4409 114.297 31.5398 107.518 24.0944 97.9241C23.8144 97.0911 23.5494 96.2365 23.3225 95.3432C22.7466 93.11 22.3288 90.7023 22.1413 88.1871C21.7523 83.1632 22.3328 77.7077 24.0072 72.5703C25.6567 67.4257 28.3995 62.6464 31.7071 58.7899C33.3506 56.8519 35.1372 55.1512 36.9231 53.6493C38.7425 52.1893 40.5573 50.9235 42.3222 49.8997C45.8455 47.8311 49.0861 46.6925 51.3646 46.0072C52.5143 45.6937 53.4168 45.4372 54.0471 45.3244C54.6721 45.1913 55.0053 45.1191 55.0053 45.1191L54.922 44.6725C54.922 44.6725 54.5836 44.7374 53.9487 44.8594C53.3092 44.9617 52.3917 45.2018 51.219 45.4949C48.8986 46.1429 45.5891 47.2317 41.9602 49.2622C40.1415 50.2676 38.2663 51.5197 36.3781 52.9731C34.5246 54.4685 32.6633 56.1698 30.9371 58.1223C27.4689 62.0037 24.543 66.863 22.7296 72.142C20.8932 77.4132 20.1717 83.0576 20.4708 88.2966C20.5698 90.1239 20.7935 91.896 21.103 93.6006C16.4431 86.0634 13.7456 77.1863 13.7456 67.673C13.7456 55.7644 17.9595 44.8404 24.9779 36.3102C27.8912 32.5501 31.3286 29.2197 35.1753 26.4171C36.0318 25.9023 36.9035 25.3992 37.8099 24.9251C43.4464 21.9566 50.0673 19.8972 56.8634 19.2663C63.6568 18.6038 70.5729 19.3915 76.6987 21.2962C79.7675 22.2321 82.6323 23.4507 85.2669 24.769C86.5517 25.4871 87.8333 26.1358 88.9889 26.9038C89.2821 27.0881 89.574 27.2711 89.8632 27.4508C90.1537 27.6285 90.4377 27.8115 90.7066 28.0115C91.253 28.3979 91.7888 28.7783 92.3128 29.1508C96.4717 32.1986 99.4119 35.3822 101.345 37.677C102.284 38.853 103.032 39.7699 103.478 40.4435C103.945 41.1 104.194 41.4509 104.194 41.4509L104.601 41.1774C104.601 41.1774 104.356 40.8193 103.895 40.1477C103.456 39.4597 102.718 38.5205 101.79 37.315C99.875 34.9611 96.9557 31.6864 92.7883 28.5185C92.261 28.1309 91.7245 27.7361 91.1762 27.3334C90.9067 27.1255 90.622 26.9353 90.3295 26.749C90.039 26.5608 89.7458 26.3699 89.45 26.1778C88.2885 25.3769 86.999 24.6935 85.7017 23.9413C83.0455 22.5515 80.1472 21.2594 77.0286 20.2494C73.9158 19.2302 70.5972 18.4727 67.1762 18.0529C63.7559 17.6312 60.2358 17.5485 56.7401 17.8201C55.2532 17.9322 53.7743 18.1146 52.3084 18.3539C52.3878 18.3343 52.4652 18.3107 52.5445 18.291C26.9776 21.6621 7.24332 43.5385 7.24332 70.0262C7.24332 88.2271 16.5631 104.249 30.6872 113.589C30.9653 113.917 31.1181 114.097 31.1181 114.097L31.2624 113.966Z" fill="#FFC926"/>
</g>
</g>
</g>
<g id="Clip path group_3">
<mask id="mask2_28_102" style="mask-type:luminance" maskUnits="userSpaceOnUse" x="101" y="89" width="28" height="26">
<g id="6f6cfd1353">
<path id="Vector_28" d="M101.916 89.9951H128.109V114.341H101.916V89.9951Z" fill="white"/>
</g>
</mask>
<g mask="url(#mask2_28_102)">
<g id="Group_3">
<g id="Clip path group_4">
<mask id="mask3_28_102" style="mask-type:luminance" maskUnits="userSpaceOnUse" x="50" y="41" width="79" height="79">
<g id="dbbe803747">
<path id="Vector_29" d="M50.4379 46.5172L123.406 41.189L128.735 114.157L55.7662 119.486L50.4379 46.5172Z" fill="white"/>
</g>
</mask>
<g mask="url(#mask3_28_102)">
<g id="Group_4">
<g id="Clip path group_5">
<mask id="mask4_28_102" style="mask-type:luminance" maskUnits="userSpaceOnUse" x="50" y="41" width="79" height="79">
<g id="160698a1f2">
<path id="Vector_30" d="M123.443 41.1857L50.4746 46.5146L55.8035 119.483L128.772 114.155L123.443 41.1857Z" fill="white"/>
</g>
</mask>
<g mask="url(#mask4_28_102)">
<g id="Group_5">
<path id="Vector_31" d="M108.858 90.1256L126.144 105.056C128.313 106.932 128.553 110.212 126.679 112.381C124.805 114.548 121.525 114.787 119.357 112.916L102.071 97.9829L108.858 90.1256Z" fill="#004D3D"/>
</g>
</g>
</g>
</g>
</g>
</g>
</g>
</g>
</g>
<g id="Clip path group_6">
<mask id="mask5_28_102" style="mask-type:luminance" maskUnits="userSpaceOnUse" x="54" y="46" width="52" height="51">
<g id="4159ee23a0">
<path id="Vector_32" d="M54.7358 46.8445H105.61V96.3753H54.7358V46.8445Z" fill="white"/>
</g>
</mask>
<g mask="url(#mask5_28_102)">
<g id="Group_6">
<g id="Clip path group_7">
<mask id="mask6_28_102" style="mask-type:luminance" maskUnits="userSpaceOnUse" x="50" y="41" width="79" height="79">
<g id="ee0e3ff2cf">
<path id="Vector_33" d="M50.4379 46.5172L123.406 41.189L128.735 114.157L55.7662 119.486L50.4379 46.5172Z" fill="white"/>
</g>
</mask>
<g mask="url(#mask6_28_102)">
<g id="Group_7">
<g id="Clip path group_8">
<mask id="mask7_28_102" style="mask-type:luminance" maskUnits="userSpaceOnUse" x="50" y="41" width="79" height="79">
<g id="fefc1816a7">
<path id="Vector_34" d="M123.443 41.1857L50.4746 46.5146L55.8035 119.483L128.772 114.155L123.443 41.1857Z" fill="white"/>
</g>
</mask>
<g mask="url(#mask7_28_102)">
<g id="Group_8">
<path id="Vector_35" d="M60.7671 55.4408C69.6869 45.1182 85.3404 43.975 95.6611 52.8928C105.061 61.0072 106.823 74.6911 100.347 84.8754L105.538 89.3582L100.827 94.8071L95.6348 90.3217C86.5091 98.2111 72.7117 98.4564 63.3158 90.3368C52.9912 81.4196 51.848 65.7661 60.7671 55.4408ZM66.7217 86.3944C74.8734 93.4383 87.2319 92.5359 94.2713 84.3822C101.313 76.2331 100.411 63.8746 92.2591 56.8332C84.108 49.7932 71.7496 50.6957 64.7102 58.8448C57.6682 66.9985 58.5706 79.355 66.7217 86.3944Z" fill="#004D3D"/>
</g>
</g>
</g>
</g>
</g>
</g>
</g>
</g>
</g>
<g id="Clip path group_9">
<mask id="mask8_28_102" style="mask-type:luminance" maskUnits="userSpaceOnUse" x="68" y="53" width="21" height="7">
<g id="b48746cb7d">
<path id="Vector_36" d="M68 53.7284H88.8198V59.9407H68V53.7284Z" fill="white"/>
</g>
</mask>
<g mask="url(#mask8_28_102)">
<g id="Group_9">
<g id="Clip path group_10">
<mask id="mask9_28_102" style="mask-type:luminance" maskUnits="userSpaceOnUse" x="50" y="41" width="79" height="79">
<g id="c26f48c9e9">
<path id="Vector_37" d="M50.4379 46.5172L123.406 41.189L128.735 114.157L55.7662 119.486L50.4379 46.5172Z" fill="white"/>
</g>
</mask>
<g mask="url(#mask9_28_102)">
<g id="Group_10">
<g id="Clip path group_11">
<mask id="mask10_28_102" style="mask-type:luminance" maskUnits="userSpaceOnUse" x="50" y="41" width="79" height="79">
<g id="e2013792a9">
<path id="Vector_38" d="M123.443 41.1857L50.4746 46.5146L55.8035 119.483L128.772 114.155L123.443 41.1857Z" fill="white"/>
</g>
</mask>
<g mask="url(#mask10_28_102)">
<g id="Group_11">
<path id="Vector_39" d="M68.6408 57.5002C74.2773 53.1604 81.9364 52.5924 88.1475 56.0619C88.7751 56.4154 89.0027 57.2077 88.6512 57.8328C88.6066 57.9108 88.5548 57.9849 88.4997 58.0485C88.1035 58.5077 87.428 58.6408 86.881 58.3345C81.5757 55.3759 75.0426 55.858 70.2286 59.5636C69.6593 60.0063 68.8401 59.8968 68.404 59.3288C67.9678 58.7615 68.0669 57.943 68.6408 57.5002Z" fill="#004D3D"/>
</g>
</g>
</g>
</g>
</g>
</g>
</g>
</g>
</g>
</g>
</svg>
