<svg xmlns="http://www.w3.org/2000/svg" xmlns:xlink="http://www.w3.org/1999/xlink" width="500" zoomAndPan="magnify" viewBox="0 0 375 112.499997" height="150" preserveAspectRatio="xMidYMid meet" version="1.0"><defs><g/><clipPath id="2688954796"><path d="M 0.828125 0 L 374.167969 0 L 374.167969 112.003906 L 0.828125 112.003906 Z M 0.828125 0 " clip-rule="nonzero"/></clipPath><clipPath id="ff81aeb74d"><path d="M 163.542969 20.382812 L 328.261719 20.382812 L 328.261719 86.789062 L 163.542969 86.789062 Z M 163.542969 20.382812 " clip-rule="nonzero"/></clipPath><clipPath id="0f09174034"><path d="M 180.71875 20.382812 L 310.933594 20.382812 C 315.488281 20.382812 319.859375 22.195312 323.078125 25.414062 C 326.300781 28.636719 328.109375 33.003906 328.109375 37.558594 L 328.109375 69.617188 C 328.109375 74.171875 326.300781 78.539062 323.078125 81.761719 C 319.859375 84.980469 315.488281 86.789062 310.933594 86.789062 L 180.71875 86.789062 C 176.164062 86.789062 171.792969 84.980469 168.574219 81.761719 C 165.351562 78.539062 163.542969 74.171875 163.542969 69.617188 L 163.542969 37.558594 C 163.542969 33.003906 165.351562 28.636719 168.574219 25.414062 C 171.792969 22.195312 176.164062 20.382812 180.71875 20.382812 Z M 180.71875 20.382812 " clip-rule="nonzero"/></clipPath><clipPath id="476542cd3f"><path d="M 141 23 L 159 23 L 159 41 L 141 41 Z M 141 23 " clip-rule="nonzero"/></clipPath><clipPath id="342127c410"><path d="M 141.839844 23.4375 L 159.011719 23.792969 L 158.667969 40.214844 L 141.5 39.859375 Z M 141.839844 23.4375 " clip-rule="nonzero"/></clipPath><clipPath id="6f16f12a0e"><path d="M 140.558594 23.410156 L 158.476562 23.78125 L 158.105469 41.699219 L 140.1875 41.328125 Z M 140.558594 23.410156 " clip-rule="nonzero"/></clipPath></defs><g clip-path="url(#2688954796)"><path fill="#ffffff" d="M 0.828125 0 L 374.171875 0 L 374.171875 112.003906 L 0.828125 112.003906 Z M 0.828125 0 " fill-opacity="1" fill-rule="nonzero"/><path fill="#ffffff" d="M 0.828125 0 L 374.171875 0 L 374.171875 112.003906 L 0.828125 112.003906 Z M 0.828125 0 " fill-opacity="1" fill-rule="nonzero"/></g><g clip-path="url(#ff81aeb74d)"><g clip-path="url(#0f09174034)"><path fill="#004d3d" d="M 163.542969 20.382812 L 328.003906 20.382812 L 328.003906 86.789062 L 163.542969 86.789062 Z M 163.542969 20.382812 " fill-opacity="1" fill-rule="nonzero"/></g></g><g fill="#ffffff" fill-opacity="1"><g transform="translate(172.363652, 71.50718)"><g><path d="M 20.707031 0 C 33.578125 0 39.886719 -6.433594 39.886719 -20.070312 C 39.886719 -33.769531 33.578125 -40.140625 20.707031 -40.140625 L 3.757812 -40.140625 C 2.421875 -40.140625 1.847656 -39.375 1.910156 -38.230469 C 1.910156 -37.65625 2.101562 -37.210938 2.546875 -36.828125 C 4.585938 -36.125 5.289062 -35.363281 5.289062 -33.449219 L 5.289062 -6.753906 C 5.289062 -4.777344 4.585938 -4.015625 2.546875 -3.3125 C 2.101562 -2.996094 1.910156 -2.484375 1.910156 -1.910156 C 1.847656 -0.765625 2.421875 0 3.757812 0 Z M 13.253906 -36 L 20.386719 -36 C 28.097656 -36 31.921875 -32.113281 31.921875 -20.132812 C 31.921875 -8.28125 27.84375 -4.140625 19.433594 -4.140625 L 13.253906 -4.140625 Z M 13.253906 -36 "/></g></g></g><g fill="#ffffff" fill-opacity="1"><g transform="translate(212.375136, 71.50718)"><g><path d="M 31.027344 -3.3125 C 28.925781 -4.015625 28.289062 -4.777344 28.289062 -7.074219 L 28.289062 -19.878906 C 28.289062 -25.804688 23.894531 -29.308594 15.671875 -29.308594 C 8.410156 -29.308594 4.140625 -25.804688 4.140625 -20.960938 C 4.140625 -19.179688 5.542969 -18.222656 7.582031 -18.222656 C 9.75 -18.222656 10.894531 -19.179688 10.894531 -20.960938 C 10.894531 -23.253906 12.359375 -25.421875 15.671875 -25.421875 C 19.050781 -25.421875 20.707031 -23.445312 20.707031 -21.152344 C 20.707031 -18.605469 19.433594 -17.011719 16.882812 -16.566406 L 10.703125 -15.546875 C 4.714844 -14.527344 2.421875 -11.339844 2.421875 -6.816406 C 2.421875 -2.230469 5.480469 0.507812 10.894531 0.507812 C 15.609375 0.507812 18.859375 -0.957031 20.707031 -3.695312 C 20.835938 -1.65625 22.617188 0 24.722656 0 L 29.816406 0 C 31.15625 0 31.730469 -0.765625 31.730469 -1.910156 C 31.730469 -2.484375 31.476562 -2.996094 31.027344 -3.3125 Z M 14.464844 -3.25 C 11.339844 -3.25 10.003906 -5.097656 10.003906 -7.328125 C 10.003906 -9.875 11.277344 -11.789062 14.273438 -12.296875 L 18.476562 -12.996094 C 19.304688 -13.125 20.070312 -13.378906 20.707031 -13.699219 L 20.707031 -11.46875 C 20.707031 -6.117188 18.476562 -3.25 14.464844 -3.25 Z M 14.464844 -3.25 "/></g></g></g><g fill="#ffffff" fill-opacity="1"><g transform="translate(243.148238, 71.50718)"><g><path d="M 14.78125 0.507812 C 20.835938 0.507812 23.574219 -2.675781 23.574219 -7.519531 C 23.574219 -8.539062 23 -9.175781 21.535156 -9.175781 C 20.199219 -9.175781 19.558594 -8.539062 19.558594 -7.519531 C 19.558594 -5.160156 18.605469 -3.441406 15.992188 -3.441406 C 13.316406 -3.441406 12.296875 -5.351562 12.296875 -7.902344 L 12.296875 -24.914062 L 17.457031 -24.914062 C 18.796875 -24.914062 19.371094 -25.484375 19.371094 -26.824219 C 19.371094 -28.160156 18.605469 -28.734375 17.457031 -28.734375 L 12.296875 -28.734375 L 12.296875 -33.003906 C 12.296875 -33.894531 11.722656 -34.722656 10.769531 -34.914062 C 9.875 -35.171875 8.984375 -34.722656 8.539062 -33.960938 C 7.453125 -30.136719 6.054688 -28.734375 3.632812 -28.734375 L 2.546875 -28.734375 C 1.402344 -28.734375 0.636719 -28.160156 0.636719 -26.824219 C 0.636719 -25.484375 1.210938 -24.914062 2.546875 -24.914062 L 4.714844 -24.914062 L 4.714844 -9.558594 C 4.714844 -2.867188 8.21875 0.507812 14.78125 0.507812 Z M 14.78125 0.507812 "/></g></g></g><g fill="#ffffff" fill-opacity="1"><g transform="translate(265.065255, 71.50718)"><g><path d="M 31.027344 -3.3125 C 28.925781 -4.015625 28.289062 -4.777344 28.289062 -7.074219 L 28.289062 -19.878906 C 28.289062 -25.804688 23.894531 -29.308594 15.671875 -29.308594 C 8.410156 -29.308594 4.140625 -25.804688 4.140625 -20.960938 C 4.140625 -19.179688 5.542969 -18.222656 7.582031 -18.222656 C 9.75 -18.222656 10.894531 -19.179688 10.894531 -20.960938 C 10.894531 -23.253906 12.359375 -25.421875 15.671875 -25.421875 C 19.050781 -25.421875 20.707031 -23.445312 20.707031 -21.152344 C 20.707031 -18.605469 19.433594 -17.011719 16.882812 -16.566406 L 10.703125 -15.546875 C 4.714844 -14.527344 2.421875 -11.339844 2.421875 -6.816406 C 2.421875 -2.230469 5.480469 0.507812 10.894531 0.507812 C 15.609375 0.507812 18.859375 -0.957031 20.707031 -3.695312 C 20.835938 -1.65625 22.617188 0 24.722656 0 L 29.816406 0 C 31.15625 0 31.730469 -0.765625 31.730469 -1.910156 C 31.730469 -2.484375 31.476562 -2.996094 31.027344 -3.3125 Z M 14.464844 -3.25 C 11.339844 -3.25 10.003906 -5.097656 10.003906 -7.328125 C 10.003906 -9.875 11.277344 -11.789062 14.273438 -12.296875 L 18.476562 -12.996094 C 19.304688 -13.125 20.070312 -13.378906 20.707031 -13.699219 L 20.707031 -11.46875 C 20.707031 -6.117188 18.476562 -3.25 14.464844 -3.25 Z M 14.464844 -3.25 "/></g></g></g><g fill="#ffffff" fill-opacity="1"><g transform="translate(295.838358, 71.50718)"><g><path d="M 22.046875 -28.988281 C 18.160156 -28.988281 14.910156 -26.761719 12.933594 -22.746094 L 12.933594 -27.269531 C 12.933594 -28.609375 12.234375 -29.246094 10.894531 -29.246094 C 10.640625 -29.246094 10.320312 -29.179688 10.066406 -29.117188 L 3.1875 -27.078125 C 2.484375 -26.824219 1.847656 -26.25 1.847656 -25.359375 C 1.847656 -24.59375 2.039062 -24.148438 2.675781 -23.765625 C 4.714844 -23.253906 5.289062 -22.492188 5.289062 -20.453125 L 5.289062 -6.945312 C 5.289062 -4.777344 4.652344 -4.015625 2.546875 -3.3125 C 2.101562 -2.996094 1.910156 -2.484375 1.847656 -1.910156 C 1.847656 -0.765625 2.421875 0 3.757812 0 L 14.398438 0 C 15.738281 0 16.3125 -0.765625 16.3125 -1.910156 C 16.3125 -2.484375 16.054688 -2.996094 15.609375 -3.3125 C 13.507812 -4.015625 12.933594 -4.777344 12.871094 -6.945312 L 12.871094 -12.359375 L 12.933594 -12.359375 C 12.933594 -19.113281 16.820312 -22.300781 21.664062 -22.300781 C 23.957031 -22.300781 25.484375 -23.253906 25.484375 -25.613281 C 25.484375 -27.96875 24.085938 -28.988281 22.046875 -28.988281 Z M 22.046875 -28.988281 "/></g></g></g><g fill="#004d3d" fill-opacity="1"><g transform="translate(41.83663, 72.801433)"><g><path d="M 2.695312 -41.394531 C 1.511719 -41.394531 0.65625 -40.410156 0.65625 -39.359375 L 0.65625 -33.183594 C 0.65625 -31.800781 1.445312 -31.210938 2.628906 -31.210938 C 3.152344 -31.210938 3.746094 -31.472656 4.074219 -32 C 5.585938 -35.613281 7.820312 -37.058594 12.746094 -37.125 L 12.746094 -7.164062 C 12.746094 -4.929688 12.089844 -4.140625 9.921875 -3.417969 C 9.460938 -3.089844 9.199219 -2.5625 9.199219 -1.972656 C 9.199219 -0.789062 9.855469 0 11.171875 0 L 22.472656 0 C 23.851562 0 24.445312 -0.789062 24.445312 -1.972656 C 24.445312 -2.5625 24.179688 -3.089844 23.785156 -3.417969 C 21.550781 -4.140625 20.960938 -4.929688 20.960938 -7.164062 L 20.960938 -37.125 C 25.890625 -37.058594 28.058594 -35.613281 29.570312 -32 C 29.960938 -31.472656 30.488281 -31.210938 31.078125 -31.210938 C 32.261719 -31.210938 32.984375 -31.800781 32.984375 -33.183594 L 32.984375 -39.359375 C 32.984375 -40.410156 32.195312 -41.394531 30.949219 -41.394531 Z M 2.695312 -41.394531 "/></g></g></g><g fill="#004d3d" fill-opacity="1"><g transform="translate(73.113559, 72.801433)"><g><path d="M 32 -3.417969 C 29.832031 -4.140625 29.175781 -4.929688 29.175781 -7.292969 L 29.175781 -20.5 C 29.175781 -26.613281 24.640625 -30.226562 16.164062 -30.226562 C 8.671875 -30.226562 4.269531 -26.613281 4.269531 -21.617188 C 4.269531 -19.777344 5.714844 -18.792969 7.820312 -18.792969 C 10.054688 -18.792969 11.234375 -19.777344 11.234375 -21.617188 C 11.234375 -23.984375 12.746094 -26.21875 16.164062 -26.21875 C 19.648438 -26.21875 21.355469 -24.179688 21.355469 -21.816406 C 21.355469 -19.1875 20.039062 -17.542969 17.414062 -17.085938 L 11.039062 -16.03125 C 4.863281 -14.980469 2.496094 -11.695312 2.496094 -7.03125 C 2.496094 -2.300781 5.652344 0.527344 11.234375 0.527344 C 16.097656 0.527344 19.449219 -0.984375 21.355469 -3.8125 C 21.488281 -1.707031 23.328125 0 25.496094 0 L 30.75 0 C 32.132812 0 32.722656 -0.789062 32.722656 -1.972656 C 32.722656 -2.5625 32.460938 -3.089844 32 -3.417969 Z M 14.914062 -3.351562 C 11.695312 -3.351562 10.316406 -5.257812 10.316406 -7.554688 C 10.316406 -10.183594 11.628906 -12.15625 14.71875 -12.679688 L 19.054688 -13.40625 C 19.910156 -13.535156 20.699219 -13.796875 21.355469 -14.128906 L 21.355469 -11.828125 C 21.355469 -6.308594 19.054688 -3.351562 14.914062 -3.351562 Z M 14.914062 -3.351562 "/></g></g></g><g fill="#004d3d" fill-opacity="1"><g transform="translate(104.850443, 72.801433)"><g><path d="M 35.023438 -3.417969 C 32.789062 -4.140625 32.132812 -4.929688 32.132812 -7.292969 L 32.195312 -20.304688 C 32.195312 -26.875 28.910156 -30.160156 22.40625 -30.160156 C 18.332031 -30.160156 15.179688 -28.582031 13.339844 -25.757812 L 13.339844 -28.121094 C 13.339844 -29.503906 12.679688 -30.160156 11.234375 -30.160156 C 10.972656 -30.160156 10.710938 -30.09375 10.382812 -30.027344 L 3.285156 -27.925781 C 2.5625 -27.664062 1.972656 -27.136719 1.972656 -26.152344 C 1.972656 -25.429688 2.101562 -24.902344 2.757812 -24.507812 C 4.863281 -23.984375 5.453125 -23.195312 5.453125 -21.09375 L 5.453125 -7.164062 C 5.453125 -4.929688 4.863281 -4.140625 2.695312 -3.417969 C 2.167969 -3.089844 1.972656 -2.5625 1.972656 -1.972656 C 1.972656 -0.789062 2.5625 0 3.941406 0 L 14.851562 0 C 16.230469 0 16.820312 -0.789062 16.820312 -1.972656 C 16.820312 -2.5625 16.558594 -3.089844 16.164062 -3.417969 C 13.929688 -4.140625 13.339844 -4.929688 13.273438 -7.164062 L 13.339844 -17.742188 C 13.339844 -23.128906 15.835938 -26.21875 19.648438 -26.21875 C 23.0625 -26.21875 24.3125 -24.378906 24.3125 -21.421875 L 24.3125 -2.101562 C 24.3125 -0.917969 25.230469 0 26.414062 0 L 33.707031 0 C 35.089844 0 35.679688 -0.789062 35.679688 -1.972656 C 35.679688 -2.5625 35.417969 -3.089844 35.023438 -3.417969 Z M 35.023438 -3.417969 "/></g></g></g><g fill="#004d3d" fill-opacity="1"><g transform="translate(139.544187, 72.801433)"><g><path d="M 9.394531 -35.480469 C 12.417969 -35.480469 14.128906 -37.191406 14.128906 -40.214844 C 14.128906 -43.105469 12.417969 -44.945312 9.394531 -44.945312 C 6.375 -44.945312 4.664062 -43.234375 4.664062 -40.214844 C 4.664062 -37.191406 6.375 -35.480469 9.394531 -35.480469 Z M 14.914062 0 C 16.230469 0 16.886719 -0.789062 16.886719 -1.972656 C 16.886719 -2.5625 16.625 -3.089844 16.097656 -3.417969 C 13.929688 -4.140625 13.339844 -4.929688 13.339844 -7.164062 L 13.339844 -28.121094 C 13.339844 -29.503906 12.679688 -30.160156 11.234375 -30.160156 C 10.972656 -30.160156 10.710938 -30.09375 10.449219 -30.027344 L 3.285156 -27.925781 C 2.5625 -27.664062 1.972656 -27.136719 1.972656 -26.152344 C 1.972656 -25.363281 2.167969 -24.902344 2.757812 -24.507812 C 4.929688 -23.984375 5.519531 -23.195312 5.519531 -21.09375 L 5.519531 -7.164062 C 5.519531 -4.929688 4.863281 -4.140625 2.695312 -3.417969 C 2.234375 -3.089844 1.972656 -2.5625 1.972656 -1.972656 C 1.972656 -0.789062 2.5625 0 3.875 0 Z M 14.914062 0 "/></g></g></g><g clip-path="url(#476542cd3f)"><g clip-path="url(#342127c410)"><g clip-path="url(#6f16f12a0e)"><path fill="#86b649" d="M 158.1875 23.917969 C 158.066406 23.90625 157.941406 23.90625 157.824219 23.898438 C 156.917969 23.816406 156.015625 23.730469 155.105469 23.757812 C 154.578125 23.769531 154.046875 23.769531 153.519531 23.796875 C 153.210938 23.808594 152.894531 23.839844 152.589844 23.902344 C 151.753906 24.074219 150.929688 24.28125 150.125 24.574219 C 149.226562 24.90625 148.367188 25.308594 147.566406 25.820312 C 146.609375 26.441406 145.722656 27.152344 145 28.054688 C 144.417969 28.773438 143.847656 29.5 143.417969 30.320312 C 143.25 30.644531 143.121094 30.988281 142.976562 31.324219 C 142.695312 31.972656 142.449219 32.632812 142.269531 33.316406 C 142.101562 33.976562 141.929688 34.628906 141.835938 35.304688 C 141.738281 35.988281 141.613281 36.667969 141.546875 37.355469 C 141.507812 37.785156 141.488281 38.222656 141.574219 38.65625 C 141.671875 39.167969 141.660156 39.167969 141.324219 39.566406 C 141.308594 39.589844 141.289062 39.609375 141.269531 39.628906 C 140.824219 40.113281 140.546875 40.707031 140.222656 41.269531 C 140.199219 41.308594 140.222656 41.375 140.230469 41.523438 C 140.738281 40.71875 141.15625 39.972656 141.824219 39.328125 C 141.972656 39.570312 142.199219 39.621094 142.421875 39.683594 C 142.800781 39.796875 143.183594 39.875 143.582031 39.839844 C 143.714844 39.828125 143.851562 39.859375 143.988281 39.863281 C 144.734375 39.890625 145.472656 39.96875 146.222656 39.925781 C 146.796875 39.894531 147.347656 39.742188 147.910156 39.667969 C 148.613281 39.570312 149.277344 39.324219 149.933594 39.066406 C 150.257812 38.941406 150.570312 38.765625 150.871094 38.585938 C 151.207031 38.382812 151.527344 38.148438 151.851562 37.929688 C 152.683594 37.359375 153.449219 36.71875 154.113281 35.953125 C 154.484375 35.523438 154.847656 35.085938 155.132812 34.585938 C 155.359375 34.183594 155.582031 33.78125 155.800781 33.375 C 156.371094 32.324219 156.832031 31.222656 157.175781 30.078125 C 157.46875 29.101562 157.738281 28.121094 158.011719 27.140625 C 158.167969 26.59375 158.320312 26.046875 158.457031 25.492188 C 158.542969 25.164062 158.609375 24.828125 158.65625 24.492188 C 158.703125 24.140625 158.535156 23.949219 158.1875 23.917969 Z M 158.1875 23.917969 " fill-opacity="1" fill-rule="nonzero"/></g></g></g></svg>