<?xml version="1.0" standalone="no"?>
<!DOCTYPE svg PUBLIC "-//W3C//DTD SVG 20010904//EN"
 "http://www.w3.org/TR/2001/REC-SVG-20010904/DTD/svg10.dtd">
<svg version="1.0" xmlns="http://www.w3.org/2000/svg"
 width="8000.000000pt" height="5250.000000pt" viewBox="0 0 8000.000000 5250.000000"
 preserveAspectRatio="xMidYMid meet">

<g transform="translate(0.000000,5250.000000) scale(0.100000,-0.100000)"
fill="#000000" stroke="none">
<path d="M22 52344 l-22 -15 0 -14385 c0 -12459 2 -14384 14 -14384 8 0 21 6
28 13 49 48 36 47 468 47 365 0 408 2 430 17 14 9 27 20 30 23 3 3 16 14 30
23 22 15 63 17 388 17 343 0 365 1 402 20 25 13 59 20 92 20 56 0 104 25 188
99 31 28 84 51 116 51 6 0 62 50 123 110 62 61 135 126 163 145 46 32 56 35
125 35 54 0 84 -5 113 -20 22 -11 50 -20 62 -20 23 0 58 -19 86 -47 8 -7 30
-26 50 -41 21 -15 39 -29 42 -33 23 -25 61 -39 110 -39 50 0 89 -14 110 -40 3
-3 16 -14 30 -23 22 -16 78 -17 630 -17 665 0 618 4 680 -60 44 -46 73 -60
120 -60 47 0 75 14 120 60 57 58 28 54 514 63 553 9 729 10 1055 2 140 -4 264
-4 276 -1 12 3 35 18 51 33 65 63 66 63 234 63 130 0 160 3 180 17 14 9 27 20
30 23 3 3 16 14 30 23 21 14 51 17 198 17 153 0 177 2 212 20 38 19 59 20 802
20 701 0 766 1 788 17 14 9 27 20 30 23 3 3 16 14 30 23 21 14 52 17 210 17
195 0 205 2 250 50 46 50 49 50 320 50 273 0 267 -1 325 53 11 10 29 19 40 21
11 2 47 9 81 15 33 6 89 11 125 11 58 0 94 12 119 39 29 33 48 36 234 43 605
24 541 14 623 95 55 54 91 73 156 80 55 6 84 18 143 58 37 25 38 25 273 25
206 0 240 -2 261 -17 14 -9 27 -20 30 -23 3 -3 16 -14 30 -23 21 -15 54 -17
238 -17 193 0 216 2 252 20 33 17 59 20 162 20 120 0 151 7 178 40 3 3 16 14
30 23 23 16 123 17 1380 17 1257 0 1357 1 1380 17 14 9 27 20 30 23 3 3 16 14
30 23 21 15 56 17 270 17 216 0 248 2 270 17 54 38 395 390 431 445 20 32 40
78 44 101 11 71 15 77 76 108 l60 30 397 -6 c840 -11 927 -16 962 -56 19 -21
60 -39 90 -39 39 0 68 -17 120 -70 69 -70 68 -70 250 -70 182 0 181 0 250 -70
62 -63 77 -70 161 -70 65 0 82 -4 113 -25 62 -42 125 -43 168 -3 7 7 29 25 48
39 19 15 49 39 65 53 39 35 66 41 120 27 26 -6 137 -11 270 -11 206 0 229 2
265 20 37 19 59 20 460 20 401 0 423 -1 460 -20 54 -28 204 -29 258 -1 20 10
49 21 64 25 15 3 62 41 105 84 109 107 108 106 182 114 252 25 227 18 291 78
29 28 70 55 89 60 20 5 52 23 71 40 37 32 61 43 127 60 31 8 62 31 133 100 51
50 103 92 116 95 13 3 35 7 48 10 14 3 40 23 58 46 45 55 197 210 228 232 13
9 40 17 60 17 35 0 70 18 100 50 28 30 64 50 90 50 14 0 50 -13 80 -30 l55
-29 265 -1 c284 0 276 -1 335 53 11 10 30 20 42 22 13 3 34 7 47 10 14 3 90
69 176 155 119 117 159 152 190 160 28 8 62 33 118 88 43 42 86 84 96 92 21
16 148 25 591 38 234 7 241 8 275 32 29 21 51 26 135 32 55 4 125 10 156 14
45 5 63 2 97 -15 37 -19 58 -21 202 -21 134 0 166 3 193 18 30 16 102 18 932
25 495 4 1816 10 2936 15 2119 7 2046 6 2079 43 28 31 59 39 150 39 107 0 111
-2 193 -82 30 -29 64 -52 87 -58 27 -7 61 -32 108 -78 113 -112 64 -102 490
-102 353 0 375 1 412 20 38 19 59 20 542 20 455 0 506 2 527 17 14 9 64 56
113 105 49 48 100 91 114 94 13 4 55 3 92 -1 37 -4 175 -10 307 -13 201 -6
245 -10 272 -24 19 -11 53 -18 84 -18 41 0 62 -6 100 -30 l47 -31 453 6 c250
3 528 6 619 7 91 1 212 -4 270 -12 58 -7 139 -12 180 -12 41 1 190 4 330 8
183 4 274 2 322 -7 74 -13 93 -7 148 51 58 61 54 60 310 60 l235 0 45 30 c44
29 48 30 168 30 104 0 129 3 163 20 39 20 51 21 397 16 196 -3 422 -8 502 -11
79 -4 154 -4 166 -1 12 3 44 28 71 54 87 86 75 82 283 82 238 0 286 -10 407
-84 l91 -56 114 0 c110 0 142 -8 168 -40 26 -32 59 -40 159 -40 100 0 106 -1
153 -31 l48 -31 48 31 c58 37 61 37 114 10 33 -17 51 -20 102 -15 148 15 383
18 446 6 61 -12 69 -11 108 9 39 20 55 21 342 21 281 0 303 -1 340 -20 32 -16
59 -20 142 -20 98 0 105 -2 148 -30 25 -16 56 -30 70 -30 14 0 43 -12 64 -27
36 -24 42 -25 70 -13 34 14 137 27 291 35 129 7 136 9 171 42 68 66 53 63 354
63 l275 0 45 30 c44 30 47 30 180 30 155 0 145 4 252 -102 38 -37 80 -71 92
-74 12 -3 74 -3 137 0 310 15 536 17 600 6 67 -13 88 -9 121 23 32 31 65 47
98 47 20 0 79 9 130 20 51 11 110 20 130 20 41 0 67 16 130 80 25 25 55 53 67
61 21 15 76 61 165 138 21 19 46 46 55 62 36 61 33 61 523 55 245 -3 594 -9
776 -14 346 -7 340 -6 384 -53 39 -40 64 -49 140 -49 80 0 95 -6 154 -63 35
-32 42 -34 166 -42 121 -7 104 -7 255 5 234 18 256 25 308 100 14 21 17 50 17
183 l0 159 29 29 c48 47 108 39 176 -23 10 -10 37 -23 60 -29 22 -6 56 -15 76
-20 25 -6 49 -24 75 -57 57 -71 104 -111 144 -124 43 -14 444 -30 720 -29 113
1 808 4 1546 9 1433 8 1348 4 1394 53 43 45 61 49 190 49 135 0 141 2 204 63
16 15 39 30 50 33 12 3 177 3 366 0 424 -7 374 -7 740 0 167 3 314 3 325 0 12
-3 35 -18 51 -33 70 -68 27 -63 584 -63 544 0 522 2 570 -50 46 -50 47 -50
340 -50 300 0 283 3 353 -60 16 -14 38 -28 50 -32 12 -3 146 -6 297 -7 293 -1
293 -1 340 49 30 32 65 50 100 50 45 0 64 14 180 130 124 124 132 130 200 130
67 0 76 5 197 127 51 51 111 102 132 113 22 11 50 30 63 42 13 13 41 36 62 52
21 16 66 57 100 90 34 34 79 74 100 90 22 16 81 71 132 122 107 107 124 119
180 128 23 3 54 13 70 21 16 8 54 15 84 15 44 0 64 6 100 30 36 24 56 30 98
30 33 0 67 7 92 20 37 19 59 20 352 20 334 0 330 0 378 -49 45 -48 22 -46 594
-54 794 -11 996 -11 1146 1 239 19 314 29 358 48 37 15 50 16 93 6 28 -7 72
-12 98 -12 48 0 72 -12 125 -62 16 -15 45 -33 65 -40 26 -9 215 -14 656 -20
583 -8 717 -9 1115 -8 88 0 204 -1 258 -1 53 -1 156 3 227 7 l130 9 69 48 c49
34 78 47 103 47 18 0 51 9 73 20 33 17 59 20 172 20 137 0 152 4 197 47 7 8
30 22 51 33 21 11 86 66 144 123 57 57 120 111 139 120 24 12 62 17 119 17 78
0 111 10 138 39 3 4 21 18 40 32 19 15 53 43 75 63 22 20 50 39 62 41 13 3 34
7 47 10 14 3 61 41 105 84 96 96 110 105 181 121 30 7 73 24 95 39 l40 26 305
7 c168 4 355 11 415 15 101 7 114 11 155 40 25 17 64 36 86 42 25 7 61 30 94
61 30 28 63 53 75 55 11 2 83 6 161 7 l141 3 60 38 61 37 654 0 c705 0 669 -3
718 50 46 50 49 50 320 50 l255 0 45 -30 c37 -25 55 -30 105 -30 33 0 94 -9
135 -20 41 -11 102 -20 135 -20 60 0 90 -12 125 -50 47 -50 46 -50 360 -50
261 0 298 -2 320 -17 14 -9 27 -20 30 -23 3 -3 16 -14 30 -23 21 -15 56 -17
270 -17 214 0 249 2 270 17 14 9 27 19 30 22 30 34 46 36 294 44 308 10 697
10 1302 0 468 -8 473 -9 504 -44 23 -26 61 -39 110 -39 58 0 79 -10 134 -63
16 -15 39 -30 50 -32 24 -5 303 -16 386 -15 30 0 271 4 536 8 507 7 489 6 534
53 47 48 51 49 308 49 212 0 247 2 275 17 23 13 66 19 157 24 88 4 134 11 155
22 26 15 71 17 345 17 336 0 333 0 380 -50 41 -45 61 -50 180 -50 112 0 144
-8 170 -40 3 -3 16 -14 30 -23 22 -15 67 -17 452 -17 l428 0 0 11520 0 11520
-39978 0 c-36167 0 -39980 -1 -40000 -16z"/>
</g>
</svg>
