<svg xmlns="http://www.w3.org/2000/svg" xmlns:xlink="http://www.w3.org/1999/xlink" width="500" zoomAndPan="magnify" viewBox="0 0 375 374.999991" height="500" preserveAspectRatio="xMidYMid meet" version="1.0"><defs><g/><clipPath id="83879f20e2"><path d="M 11.449219 4.507812 L 363.550781 4.507812 L 363.550781 371 L 11.449219 371 Z M 11.449219 4.507812 " clip-rule="nonzero"/></clipPath><clipPath id="f8456c392e"><path d="M 86.449219 4.507812 L 288.550781 4.507812 C 308.441406 4.507812 327.519531 12.410156 341.585938 26.476562 C 355.648438 40.539062 363.550781 59.617188 363.550781 79.507812 L 363.550781 295.492188 C 363.550781 315.382812 355.648438 334.460938 341.585938 348.523438 C 327.519531 362.589844 308.441406 370.492188 288.550781 370.492188 L 86.449219 370.492188 C 66.558594 370.492188 47.480469 362.589844 33.414062 348.523438 C 19.351562 334.460938 11.449219 315.382812 11.449219 295.492188 L 11.449219 79.507812 C 11.449219 59.617188 19.351562 40.539062 33.414062 26.476562 C 47.480469 12.410156 66.558594 4.507812 86.449219 4.507812 Z M 86.449219 4.507812 " clip-rule="nonzero"/></clipPath><clipPath id="a43371d3f4"><path d="M 232 92 L 338 92 L 338 193 L 232 193 Z M 232 92 " clip-rule="nonzero"/></clipPath><clipPath id="d2542d27ed"><path d="M 234.589844 90.242188 L 338.066406 92.386719 L 335.984375 192.863281 L 232.503906 190.71875 Z M 234.589844 90.242188 " clip-rule="nonzero"/></clipPath><clipPath id="f484f2accb"><path d="M 226.734375 90.078125 L 338.460938 92.394531 L 336.160156 203.371094 L 224.433594 201.054688 Z M 226.734375 90.078125 " clip-rule="nonzero"/></clipPath></defs><g clip-path="url(#83879f20e2)"><g clip-path="url(#f8456c392e)"><path fill="#004d3d" d="M 11.449219 4.507812 L 363.550781 4.507812 L 363.550781 370.367188 L 11.449219 370.367188 Z M 11.449219 4.507812 " fill-opacity="1" fill-rule="nonzero"/></g></g><g fill="#ffffff" fill-opacity="1"><g transform="translate(93.10543, 271.231673)"><g><path d="M 96.699219 0 C 156.804688 0 186.257812 -30.050781 186.257812 -93.726562 C 186.257812 -157.695312 156.804688 -187.449219 96.699219 -187.449219 L 17.554688 -187.449219 C 11.304688 -187.449219 8.628906 -183.878906 8.925781 -178.523438 C 8.925781 -175.847656 9.820312 -173.761719 11.902344 -171.976562 C 21.421875 -168.703125 24.695312 -165.132812 24.695312 -156.207031 L 24.695312 -31.539062 C 24.695312 -22.316406 21.421875 -18.746094 11.902344 -15.472656 C 9.820312 -13.984375 8.925781 -11.605469 8.925781 -8.925781 C 8.628906 -3.570312 11.304688 0 17.554688 0 Z M 61.886719 -168.109375 L 95.210938 -168.109375 C 131.214844 -168.109375 149.066406 -149.960938 149.066406 -94.023438 C 149.066406 -38.679688 130.023438 -19.339844 90.75 -19.339844 L 61.886719 -19.339844 Z M 61.886719 -168.109375 "/></g></g></g><g clip-path="url(#a43371d3f4)"><g clip-path="url(#d2542d27ed)"><g clip-path="url(#f484f2accb)"><path fill="#86b649" d="M 334.957031 93.199219 C 334.214844 93.128906 333.460938 93.132812 332.71875 93.070312 C 327.164062 92.585938 321.613281 92.046875 316.027344 92.203125 C 312.78125 92.292969 309.53125 92.289062 306.292969 92.445312 C 304.386719 92.535156 302.457031 92.710938 300.59375 93.089844 C 295.457031 94.15625 290.386719 95.417969 285.433594 97.238281 C 279.925781 99.253906 274.648438 101.722656 269.742188 104.886719 C 263.851562 108.691406 258.402344 113.0625 253.960938 118.597656 C 250.410156 123.023438 246.902344 127.464844 244.265625 132.511719 C 243.230469 134.5 242.425781 136.609375 241.539062 138.675781 C 239.820312 142.660156 238.304688 146.707031 237.214844 150.921875 C 236.171875 154.957031 235.125 158.984375 234.539062 163.117188 C 233.941406 167.320312 233.167969 171.507812 232.777344 175.726562 C 232.53125 178.359375 232.417969 181.039062 232.925781 183.703125 C 233.523438 186.84375 233.460938 186.855469 231.402344 189.304688 C 231.292969 189.433594 231.183594 189.558594 231.070312 189.679688 C 228.328125 192.65625 226.628906 196.304688 224.628906 199.757812 C 224.492188 199.996094 224.640625 200.398438 224.691406 201.324219 C 227.796875 196.367188 230.367188 191.78125 234.460938 187.824219 C 235.386719 189.324219 236.761719 189.625 238.136719 190.027344 C 240.476562 190.707031 242.808594 191.191406 245.265625 190.96875 C 246.082031 190.894531 246.925781 191.085938 247.757812 191.117188 C 252.328125 191.28125 256.878906 191.757812 261.484375 191.5 C 265.015625 191.304688 268.378906 190.375 271.839844 189.914062 C 276.175781 189.328125 280.238281 187.804688 284.265625 186.230469 C 286.269531 185.445312 288.179688 184.375 290.027344 183.265625 C 292.09375 182.019531 294.046875 180.589844 296.042969 179.234375 C 301.160156 175.753906 305.863281 171.800781 309.929688 167.113281 C 312.226562 164.464844 314.457031 161.773438 316.1875 158.710938 C 317.585938 156.246094 318.953125 153.765625 320.300781 151.273438 C 323.8125 144.8125 326.628906 138.0625 328.753906 131.023438 C 330.554688 125.039062 332.195312 119.007812 333.882812 112.992188 C 334.832031 109.621094 335.773438 106.257812 336.625 102.859375 C 337.136719 100.839844 337.539062 98.796875 337.832031 96.730469 C 338.128906 94.574219 337.09375 93.398438 334.957031 93.199219 Z M 334.957031 93.199219 " fill-opacity="1" fill-rule="nonzero"/></g></g></g></svg>